%TF.GenerationSoftware,KiCad,Pcbnew,8.0.8*%
%TF.CreationDate,2025-02-03T19:45:29-07:00*%
%TF.ProjectId,Uno_Shield_ThermoPro,556e6f5f-5368-4696-956c-645f54686572,rev?*%
%TF.SameCoordinates,Original*%
%TF.FileFunction,Legend,Top*%
%TF.FilePolarity,Positive*%
%FSLAX46Y46*%
G04 Gerber Fmt 4.6, Leading zero omitted, Abs format (unit mm)*
G04 Created by KiCad (PCBNEW 8.0.8) date 2025-02-03 19:45:29*
%MOMM*%
%LPD*%
G01*
G04 APERTURE LIST*
%ADD10C,0.150000*%
%ADD11C,0.000000*%
%ADD12C,0.120000*%
G04 APERTURE END LIST*
D10*
X133812969Y-71869819D02*
X133336779Y-71869819D01*
X133336779Y-71869819D02*
X133336779Y-70869819D01*
X134289160Y-71869819D02*
X134193922Y-71822200D01*
X134193922Y-71822200D02*
X134146303Y-71774580D01*
X134146303Y-71774580D02*
X134098684Y-71679342D01*
X134098684Y-71679342D02*
X134098684Y-71393628D01*
X134098684Y-71393628D02*
X134146303Y-71298390D01*
X134146303Y-71298390D02*
X134193922Y-71250771D01*
X134193922Y-71250771D02*
X134289160Y-71203152D01*
X134289160Y-71203152D02*
X134432017Y-71203152D01*
X134432017Y-71203152D02*
X134527255Y-71250771D01*
X134527255Y-71250771D02*
X134574874Y-71298390D01*
X134574874Y-71298390D02*
X134622493Y-71393628D01*
X134622493Y-71393628D02*
X134622493Y-71679342D01*
X134622493Y-71679342D02*
X134574874Y-71774580D01*
X134574874Y-71774580D02*
X134527255Y-71822200D01*
X134527255Y-71822200D02*
X134432017Y-71869819D01*
X134432017Y-71869819D02*
X134289160Y-71869819D01*
X135479636Y-71822200D02*
X135384398Y-71869819D01*
X135384398Y-71869819D02*
X135193922Y-71869819D01*
X135193922Y-71869819D02*
X135098684Y-71822200D01*
X135098684Y-71822200D02*
X135051065Y-71774580D01*
X135051065Y-71774580D02*
X135003446Y-71679342D01*
X135003446Y-71679342D02*
X135003446Y-71393628D01*
X135003446Y-71393628D02*
X135051065Y-71298390D01*
X135051065Y-71298390D02*
X135098684Y-71250771D01*
X135098684Y-71250771D02*
X135193922Y-71203152D01*
X135193922Y-71203152D02*
X135384398Y-71203152D01*
X135384398Y-71203152D02*
X135479636Y-71250771D01*
X135908208Y-71869819D02*
X135908208Y-70869819D01*
X136003446Y-71488866D02*
X136289160Y-71869819D01*
X136289160Y-71203152D02*
X135908208Y-71584104D01*
X144408207Y-71774580D02*
X144360588Y-71822200D01*
X144360588Y-71822200D02*
X144217731Y-71869819D01*
X144217731Y-71869819D02*
X144122493Y-71869819D01*
X144122493Y-71869819D02*
X143979636Y-71822200D01*
X143979636Y-71822200D02*
X143884398Y-71726961D01*
X143884398Y-71726961D02*
X143836779Y-71631723D01*
X143836779Y-71631723D02*
X143789160Y-71441247D01*
X143789160Y-71441247D02*
X143789160Y-71298390D01*
X143789160Y-71298390D02*
X143836779Y-71107914D01*
X143836779Y-71107914D02*
X143884398Y-71012676D01*
X143884398Y-71012676D02*
X143979636Y-70917438D01*
X143979636Y-70917438D02*
X144122493Y-70869819D01*
X144122493Y-70869819D02*
X144217731Y-70869819D01*
X144217731Y-70869819D02*
X144360588Y-70917438D01*
X144360588Y-70917438D02*
X144408207Y-70965057D01*
X145265350Y-71869819D02*
X145265350Y-71346009D01*
X145265350Y-71346009D02*
X145217731Y-71250771D01*
X145217731Y-71250771D02*
X145122493Y-71203152D01*
X145122493Y-71203152D02*
X144932017Y-71203152D01*
X144932017Y-71203152D02*
X144836779Y-71250771D01*
X145265350Y-71822200D02*
X145170112Y-71869819D01*
X145170112Y-71869819D02*
X144932017Y-71869819D01*
X144932017Y-71869819D02*
X144836779Y-71822200D01*
X144836779Y-71822200D02*
X144789160Y-71726961D01*
X144789160Y-71726961D02*
X144789160Y-71631723D01*
X144789160Y-71631723D02*
X144836779Y-71536485D01*
X144836779Y-71536485D02*
X144932017Y-71488866D01*
X144932017Y-71488866D02*
X145170112Y-71488866D01*
X145170112Y-71488866D02*
X145265350Y-71441247D01*
X145884398Y-71869819D02*
X145789160Y-71822200D01*
X145789160Y-71822200D02*
X145741541Y-71726961D01*
X145741541Y-71726961D02*
X145741541Y-70869819D01*
X146265351Y-71869819D02*
X146265351Y-71203152D01*
X146265351Y-70869819D02*
X146217732Y-70917438D01*
X146217732Y-70917438D02*
X146265351Y-70965057D01*
X146265351Y-70965057D02*
X146312970Y-70917438D01*
X146312970Y-70917438D02*
X146265351Y-70869819D01*
X146265351Y-70869819D02*
X146265351Y-70965057D01*
X146741541Y-71869819D02*
X146741541Y-70869819D01*
X146741541Y-71250771D02*
X146836779Y-71203152D01*
X146836779Y-71203152D02*
X147027255Y-71203152D01*
X147027255Y-71203152D02*
X147122493Y-71250771D01*
X147122493Y-71250771D02*
X147170112Y-71298390D01*
X147170112Y-71298390D02*
X147217731Y-71393628D01*
X147217731Y-71393628D02*
X147217731Y-71679342D01*
X147217731Y-71679342D02*
X147170112Y-71774580D01*
X147170112Y-71774580D02*
X147122493Y-71822200D01*
X147122493Y-71822200D02*
X147027255Y-71869819D01*
X147027255Y-71869819D02*
X146836779Y-71869819D01*
X146836779Y-71869819D02*
X146741541Y-71822200D01*
X147646303Y-71869819D02*
X147646303Y-71203152D01*
X147646303Y-71393628D02*
X147693922Y-71298390D01*
X147693922Y-71298390D02*
X147741541Y-71250771D01*
X147741541Y-71250771D02*
X147836779Y-71203152D01*
X147836779Y-71203152D02*
X147932017Y-71203152D01*
X148693922Y-71869819D02*
X148693922Y-71346009D01*
X148693922Y-71346009D02*
X148646303Y-71250771D01*
X148646303Y-71250771D02*
X148551065Y-71203152D01*
X148551065Y-71203152D02*
X148360589Y-71203152D01*
X148360589Y-71203152D02*
X148265351Y-71250771D01*
X148693922Y-71822200D02*
X148598684Y-71869819D01*
X148598684Y-71869819D02*
X148360589Y-71869819D01*
X148360589Y-71869819D02*
X148265351Y-71822200D01*
X148265351Y-71822200D02*
X148217732Y-71726961D01*
X148217732Y-71726961D02*
X148217732Y-71631723D01*
X148217732Y-71631723D02*
X148265351Y-71536485D01*
X148265351Y-71536485D02*
X148360589Y-71488866D01*
X148360589Y-71488866D02*
X148598684Y-71488866D01*
X148598684Y-71488866D02*
X148693922Y-71441247D01*
X149027256Y-71203152D02*
X149408208Y-71203152D01*
X149170113Y-70869819D02*
X149170113Y-71726961D01*
X149170113Y-71726961D02*
X149217732Y-71822200D01*
X149217732Y-71822200D02*
X149312970Y-71869819D01*
X149312970Y-71869819D02*
X149408208Y-71869819D01*
X150122494Y-71822200D02*
X150027256Y-71869819D01*
X150027256Y-71869819D02*
X149836780Y-71869819D01*
X149836780Y-71869819D02*
X149741542Y-71822200D01*
X149741542Y-71822200D02*
X149693923Y-71726961D01*
X149693923Y-71726961D02*
X149693923Y-71346009D01*
X149693923Y-71346009D02*
X149741542Y-71250771D01*
X149741542Y-71250771D02*
X149836780Y-71203152D01*
X149836780Y-71203152D02*
X150027256Y-71203152D01*
X150027256Y-71203152D02*
X150122494Y-71250771D01*
X150122494Y-71250771D02*
X150170113Y-71346009D01*
X150170113Y-71346009D02*
X150170113Y-71441247D01*
X150170113Y-71441247D02*
X149693923Y-71536485D01*
X162979636Y-85369819D02*
X162884398Y-85417438D01*
X162884398Y-85417438D02*
X162836779Y-85512676D01*
X162836779Y-85512676D02*
X162884398Y-85607914D01*
X162884398Y-85607914D02*
X162979636Y-85655533D01*
X162979636Y-85655533D02*
X163074874Y-85607914D01*
X163074874Y-85607914D02*
X163122493Y-85512676D01*
X163122493Y-85512676D02*
X163074874Y-85417438D01*
X163074874Y-85417438D02*
X162979636Y-85369819D01*
X164170112Y-86274580D02*
X164122493Y-86322200D01*
X164122493Y-86322200D02*
X163979636Y-86369819D01*
X163979636Y-86369819D02*
X163884398Y-86369819D01*
X163884398Y-86369819D02*
X163741541Y-86322200D01*
X163741541Y-86322200D02*
X163646303Y-86226961D01*
X163646303Y-86226961D02*
X163598684Y-86131723D01*
X163598684Y-86131723D02*
X163551065Y-85941247D01*
X163551065Y-85941247D02*
X163551065Y-85798390D01*
X163551065Y-85798390D02*
X163598684Y-85607914D01*
X163598684Y-85607914D02*
X163646303Y-85512676D01*
X163646303Y-85512676D02*
X163741541Y-85417438D01*
X163741541Y-85417438D02*
X163884398Y-85369819D01*
X163884398Y-85369819D02*
X163979636Y-85369819D01*
X163979636Y-85369819D02*
X164122493Y-85417438D01*
X164122493Y-85417438D02*
X164170112Y-85465057D01*
X165312969Y-85322200D02*
X164455827Y-86607914D01*
X165789160Y-85369819D02*
X165693922Y-85417438D01*
X165693922Y-85417438D02*
X165646303Y-85512676D01*
X165646303Y-85512676D02*
X165693922Y-85607914D01*
X165693922Y-85607914D02*
X165789160Y-85655533D01*
X165789160Y-85655533D02*
X165884398Y-85607914D01*
X165884398Y-85607914D02*
X165932017Y-85512676D01*
X165932017Y-85512676D02*
X165884398Y-85417438D01*
X165884398Y-85417438D02*
X165789160Y-85369819D01*
X166741541Y-85846009D02*
X166408208Y-85846009D01*
X166408208Y-86369819D02*
X166408208Y-85369819D01*
X166408208Y-85369819D02*
X166884398Y-85369819D01*
X163312969Y-76369819D02*
X162836779Y-76369819D01*
X162836779Y-76369819D02*
X162836779Y-75369819D01*
X163646303Y-76369819D02*
X163646303Y-75703152D01*
X163646303Y-75369819D02*
X163598684Y-75417438D01*
X163598684Y-75417438D02*
X163646303Y-75465057D01*
X163646303Y-75465057D02*
X163693922Y-75417438D01*
X163693922Y-75417438D02*
X163646303Y-75369819D01*
X163646303Y-75369819D02*
X163646303Y-75465057D01*
X164551064Y-75703152D02*
X164551064Y-76512676D01*
X164551064Y-76512676D02*
X164503445Y-76607914D01*
X164503445Y-76607914D02*
X164455826Y-76655533D01*
X164455826Y-76655533D02*
X164360588Y-76703152D01*
X164360588Y-76703152D02*
X164217731Y-76703152D01*
X164217731Y-76703152D02*
X164122493Y-76655533D01*
X164551064Y-76322200D02*
X164455826Y-76369819D01*
X164455826Y-76369819D02*
X164265350Y-76369819D01*
X164265350Y-76369819D02*
X164170112Y-76322200D01*
X164170112Y-76322200D02*
X164122493Y-76274580D01*
X164122493Y-76274580D02*
X164074874Y-76179342D01*
X164074874Y-76179342D02*
X164074874Y-75893628D01*
X164074874Y-75893628D02*
X164122493Y-75798390D01*
X164122493Y-75798390D02*
X164170112Y-75750771D01*
X164170112Y-75750771D02*
X164265350Y-75703152D01*
X164265350Y-75703152D02*
X164455826Y-75703152D01*
X164455826Y-75703152D02*
X164551064Y-75750771D01*
X165027255Y-76369819D02*
X165027255Y-75369819D01*
X165455826Y-76369819D02*
X165455826Y-75846009D01*
X165455826Y-75846009D02*
X165408207Y-75750771D01*
X165408207Y-75750771D02*
X165312969Y-75703152D01*
X165312969Y-75703152D02*
X165170112Y-75703152D01*
X165170112Y-75703152D02*
X165074874Y-75750771D01*
X165074874Y-75750771D02*
X165027255Y-75798390D01*
X165789160Y-75703152D02*
X166170112Y-75703152D01*
X165932017Y-75369819D02*
X165932017Y-76226961D01*
X165932017Y-76226961D02*
X165979636Y-76322200D01*
X165979636Y-76322200D02*
X166074874Y-76369819D01*
X166074874Y-76369819D02*
X166170112Y-76369819D01*
X163027255Y-61759875D02*
X163217731Y-61759875D01*
X163217731Y-61759875D02*
X163312969Y-61807494D01*
X163312969Y-61807494D02*
X163408207Y-61902732D01*
X163408207Y-61902732D02*
X163455826Y-62093208D01*
X163455826Y-62093208D02*
X163455826Y-62426541D01*
X163455826Y-62426541D02*
X163408207Y-62617017D01*
X163408207Y-62617017D02*
X163312969Y-62712256D01*
X163312969Y-62712256D02*
X163217731Y-62759875D01*
X163217731Y-62759875D02*
X163027255Y-62759875D01*
X163027255Y-62759875D02*
X162932017Y-62712256D01*
X162932017Y-62712256D02*
X162836779Y-62617017D01*
X162836779Y-62617017D02*
X162789160Y-62426541D01*
X162789160Y-62426541D02*
X162789160Y-62093208D01*
X162789160Y-62093208D02*
X162836779Y-61902732D01*
X162836779Y-61902732D02*
X162932017Y-61807494D01*
X162932017Y-61807494D02*
X163027255Y-61759875D01*
X163884398Y-62093208D02*
X163884398Y-62759875D01*
X163884398Y-62188446D02*
X163932017Y-62140827D01*
X163932017Y-62140827D02*
X164027255Y-62093208D01*
X164027255Y-62093208D02*
X164170112Y-62093208D01*
X164170112Y-62093208D02*
X164265350Y-62140827D01*
X164265350Y-62140827D02*
X164312969Y-62236065D01*
X164312969Y-62236065D02*
X164312969Y-62759875D01*
X165503445Y-61712256D02*
X164646303Y-62997970D01*
X166027255Y-61759875D02*
X166217731Y-61759875D01*
X166217731Y-61759875D02*
X166312969Y-61807494D01*
X166312969Y-61807494D02*
X166408207Y-61902732D01*
X166408207Y-61902732D02*
X166455826Y-62093208D01*
X166455826Y-62093208D02*
X166455826Y-62426541D01*
X166455826Y-62426541D02*
X166408207Y-62617017D01*
X166408207Y-62617017D02*
X166312969Y-62712256D01*
X166312969Y-62712256D02*
X166217731Y-62759875D01*
X166217731Y-62759875D02*
X166027255Y-62759875D01*
X166027255Y-62759875D02*
X165932017Y-62712256D01*
X165932017Y-62712256D02*
X165836779Y-62617017D01*
X165836779Y-62617017D02*
X165789160Y-62426541D01*
X165789160Y-62426541D02*
X165789160Y-62093208D01*
X165789160Y-62093208D02*
X165836779Y-61902732D01*
X165836779Y-61902732D02*
X165932017Y-61807494D01*
X165932017Y-61807494D02*
X166027255Y-61759875D01*
X166741541Y-62093208D02*
X167122493Y-62093208D01*
X166884398Y-62759875D02*
X166884398Y-61902732D01*
X166884398Y-61902732D02*
X166932017Y-61807494D01*
X166932017Y-61807494D02*
X167027255Y-61759875D01*
X167027255Y-61759875D02*
X167122493Y-61759875D01*
X167312970Y-62093208D02*
X167693922Y-62093208D01*
X167455827Y-62759875D02*
X167455827Y-61902732D01*
X167455827Y-61902732D02*
X167503446Y-61807494D01*
X167503446Y-61807494D02*
X167598684Y-61759875D01*
X167598684Y-61759875D02*
X167693922Y-61759875D01*
X147183922Y-90229987D02*
X147755350Y-90229987D01*
X147469636Y-91229987D02*
X147469636Y-90229987D01*
X148088684Y-91229987D02*
X148088684Y-90229987D01*
X148517255Y-91229987D02*
X148517255Y-90706177D01*
X148517255Y-90706177D02*
X148469636Y-90610939D01*
X148469636Y-90610939D02*
X148374398Y-90563320D01*
X148374398Y-90563320D02*
X148231541Y-90563320D01*
X148231541Y-90563320D02*
X148136303Y-90610939D01*
X148136303Y-90610939D02*
X148088684Y-90658558D01*
X149374398Y-91182368D02*
X149279160Y-91229987D01*
X149279160Y-91229987D02*
X149088684Y-91229987D01*
X149088684Y-91229987D02*
X148993446Y-91182368D01*
X148993446Y-91182368D02*
X148945827Y-91087129D01*
X148945827Y-91087129D02*
X148945827Y-90706177D01*
X148945827Y-90706177D02*
X148993446Y-90610939D01*
X148993446Y-90610939D02*
X149088684Y-90563320D01*
X149088684Y-90563320D02*
X149279160Y-90563320D01*
X149279160Y-90563320D02*
X149374398Y-90610939D01*
X149374398Y-90610939D02*
X149422017Y-90706177D01*
X149422017Y-90706177D02*
X149422017Y-90801415D01*
X149422017Y-90801415D02*
X148945827Y-90896653D01*
X149850589Y-91229987D02*
X149850589Y-90563320D01*
X149850589Y-90753796D02*
X149898208Y-90658558D01*
X149898208Y-90658558D02*
X149945827Y-90610939D01*
X149945827Y-90610939D02*
X150041065Y-90563320D01*
X150041065Y-90563320D02*
X150136303Y-90563320D01*
X150469637Y-91229987D02*
X150469637Y-90563320D01*
X150469637Y-90658558D02*
X150517256Y-90610939D01*
X150517256Y-90610939D02*
X150612494Y-90563320D01*
X150612494Y-90563320D02*
X150755351Y-90563320D01*
X150755351Y-90563320D02*
X150850589Y-90610939D01*
X150850589Y-90610939D02*
X150898208Y-90706177D01*
X150898208Y-90706177D02*
X150898208Y-91229987D01*
X150898208Y-90706177D02*
X150945827Y-90610939D01*
X150945827Y-90610939D02*
X151041065Y-90563320D01*
X151041065Y-90563320D02*
X151183922Y-90563320D01*
X151183922Y-90563320D02*
X151279161Y-90610939D01*
X151279161Y-90610939D02*
X151326780Y-90706177D01*
X151326780Y-90706177D02*
X151326780Y-91229987D01*
X151945827Y-91229987D02*
X151850589Y-91182368D01*
X151850589Y-91182368D02*
X151802970Y-91134748D01*
X151802970Y-91134748D02*
X151755351Y-91039510D01*
X151755351Y-91039510D02*
X151755351Y-90753796D01*
X151755351Y-90753796D02*
X151802970Y-90658558D01*
X151802970Y-90658558D02*
X151850589Y-90610939D01*
X151850589Y-90610939D02*
X151945827Y-90563320D01*
X151945827Y-90563320D02*
X152088684Y-90563320D01*
X152088684Y-90563320D02*
X152183922Y-90610939D01*
X152183922Y-90610939D02*
X152231541Y-90658558D01*
X152231541Y-90658558D02*
X152279160Y-90753796D01*
X152279160Y-90753796D02*
X152279160Y-91039510D01*
X152279160Y-91039510D02*
X152231541Y-91134748D01*
X152231541Y-91134748D02*
X152183922Y-91182368D01*
X152183922Y-91182368D02*
X152088684Y-91229987D01*
X152088684Y-91229987D02*
X151945827Y-91229987D01*
X152707732Y-91229987D02*
X152707732Y-90229987D01*
X152707732Y-90229987D02*
X153088684Y-90229987D01*
X153088684Y-90229987D02*
X153183922Y-90277606D01*
X153183922Y-90277606D02*
X153231541Y-90325225D01*
X153231541Y-90325225D02*
X153279160Y-90420463D01*
X153279160Y-90420463D02*
X153279160Y-90563320D01*
X153279160Y-90563320D02*
X153231541Y-90658558D01*
X153231541Y-90658558D02*
X153183922Y-90706177D01*
X153183922Y-90706177D02*
X153088684Y-90753796D01*
X153088684Y-90753796D02*
X152707732Y-90753796D01*
X153707732Y-91229987D02*
X153707732Y-90563320D01*
X153707732Y-90753796D02*
X153755351Y-90658558D01*
X153755351Y-90658558D02*
X153802970Y-90610939D01*
X153802970Y-90610939D02*
X153898208Y-90563320D01*
X153898208Y-90563320D02*
X153993446Y-90563320D01*
X154469637Y-91229987D02*
X154374399Y-91182368D01*
X154374399Y-91182368D02*
X154326780Y-91134748D01*
X154326780Y-91134748D02*
X154279161Y-91039510D01*
X154279161Y-91039510D02*
X154279161Y-90753796D01*
X154279161Y-90753796D02*
X154326780Y-90658558D01*
X154326780Y-90658558D02*
X154374399Y-90610939D01*
X154374399Y-90610939D02*
X154469637Y-90563320D01*
X154469637Y-90563320D02*
X154612494Y-90563320D01*
X154612494Y-90563320D02*
X154707732Y-90610939D01*
X154707732Y-90610939D02*
X154755351Y-90658558D01*
X154755351Y-90658558D02*
X154802970Y-90753796D01*
X154802970Y-90753796D02*
X154802970Y-91039510D01*
X154802970Y-91039510D02*
X154755351Y-91134748D01*
X154755351Y-91134748D02*
X154707732Y-91182368D01*
X154707732Y-91182368D02*
X154612494Y-91229987D01*
X154612494Y-91229987D02*
X154469637Y-91229987D01*
X155850590Y-90229987D02*
X156422018Y-90229987D01*
X156136304Y-91229987D02*
X156136304Y-90229987D01*
X157136304Y-91182368D02*
X157041066Y-91229987D01*
X157041066Y-91229987D02*
X156850590Y-91229987D01*
X156850590Y-91229987D02*
X156755352Y-91182368D01*
X156755352Y-91182368D02*
X156707733Y-91087129D01*
X156707733Y-91087129D02*
X156707733Y-90706177D01*
X156707733Y-90706177D02*
X156755352Y-90610939D01*
X156755352Y-90610939D02*
X156850590Y-90563320D01*
X156850590Y-90563320D02*
X157041066Y-90563320D01*
X157041066Y-90563320D02*
X157136304Y-90610939D01*
X157136304Y-90610939D02*
X157183923Y-90706177D01*
X157183923Y-90706177D02*
X157183923Y-90801415D01*
X157183923Y-90801415D02*
X156707733Y-90896653D01*
X157612495Y-91229987D02*
X157612495Y-90563320D01*
X157612495Y-90658558D02*
X157660114Y-90610939D01*
X157660114Y-90610939D02*
X157755352Y-90563320D01*
X157755352Y-90563320D02*
X157898209Y-90563320D01*
X157898209Y-90563320D02*
X157993447Y-90610939D01*
X157993447Y-90610939D02*
X158041066Y-90706177D01*
X158041066Y-90706177D02*
X158041066Y-91229987D01*
X158041066Y-90706177D02*
X158088685Y-90610939D01*
X158088685Y-90610939D02*
X158183923Y-90563320D01*
X158183923Y-90563320D02*
X158326780Y-90563320D01*
X158326780Y-90563320D02*
X158422019Y-90610939D01*
X158422019Y-90610939D02*
X158469638Y-90706177D01*
X158469638Y-90706177D02*
X158469638Y-91229987D01*
X158945828Y-90563320D02*
X158945828Y-91563320D01*
X158945828Y-90610939D02*
X159041066Y-90563320D01*
X159041066Y-90563320D02*
X159231542Y-90563320D01*
X159231542Y-90563320D02*
X159326780Y-90610939D01*
X159326780Y-90610939D02*
X159374399Y-90658558D01*
X159374399Y-90658558D02*
X159422018Y-90753796D01*
X159422018Y-90753796D02*
X159422018Y-91039510D01*
X159422018Y-91039510D02*
X159374399Y-91134748D01*
X159374399Y-91134748D02*
X159326780Y-91182368D01*
X159326780Y-91182368D02*
X159231542Y-91229987D01*
X159231542Y-91229987D02*
X159041066Y-91229987D01*
X159041066Y-91229987D02*
X158945828Y-91182368D01*
X159850590Y-91134748D02*
X159898209Y-91182368D01*
X159898209Y-91182368D02*
X159850590Y-91229987D01*
X159850590Y-91229987D02*
X159802971Y-91182368D01*
X159802971Y-91182368D02*
X159850590Y-91134748D01*
X159850590Y-91134748D02*
X159850590Y-91229987D01*
X161088685Y-91229987D02*
X161088685Y-90229987D01*
X161088685Y-90229987D02*
X161469637Y-90229987D01*
X161469637Y-90229987D02*
X161564875Y-90277606D01*
X161564875Y-90277606D02*
X161612494Y-90325225D01*
X161612494Y-90325225D02*
X161660113Y-90420463D01*
X161660113Y-90420463D02*
X161660113Y-90563320D01*
X161660113Y-90563320D02*
X161612494Y-90658558D01*
X161612494Y-90658558D02*
X161564875Y-90706177D01*
X161564875Y-90706177D02*
X161469637Y-90753796D01*
X161469637Y-90753796D02*
X161088685Y-90753796D01*
X162088685Y-91229987D02*
X162088685Y-90563320D01*
X162088685Y-90753796D02*
X162136304Y-90658558D01*
X162136304Y-90658558D02*
X162183923Y-90610939D01*
X162183923Y-90610939D02*
X162279161Y-90563320D01*
X162279161Y-90563320D02*
X162374399Y-90563320D01*
X162850590Y-91229987D02*
X162755352Y-91182368D01*
X162755352Y-91182368D02*
X162707733Y-91134748D01*
X162707733Y-91134748D02*
X162660114Y-91039510D01*
X162660114Y-91039510D02*
X162660114Y-90753796D01*
X162660114Y-90753796D02*
X162707733Y-90658558D01*
X162707733Y-90658558D02*
X162755352Y-90610939D01*
X162755352Y-90610939D02*
X162850590Y-90563320D01*
X162850590Y-90563320D02*
X162993447Y-90563320D01*
X162993447Y-90563320D02*
X163088685Y-90610939D01*
X163088685Y-90610939D02*
X163136304Y-90658558D01*
X163136304Y-90658558D02*
X163183923Y-90753796D01*
X163183923Y-90753796D02*
X163183923Y-91039510D01*
X163183923Y-91039510D02*
X163136304Y-91134748D01*
X163136304Y-91134748D02*
X163088685Y-91182368D01*
X163088685Y-91182368D02*
X162993447Y-91229987D01*
X162993447Y-91229987D02*
X162850590Y-91229987D01*
X163612495Y-91229987D02*
X163612495Y-90229987D01*
X163612495Y-90610939D02*
X163707733Y-90563320D01*
X163707733Y-90563320D02*
X163898209Y-90563320D01*
X163898209Y-90563320D02*
X163993447Y-90610939D01*
X163993447Y-90610939D02*
X164041066Y-90658558D01*
X164041066Y-90658558D02*
X164088685Y-90753796D01*
X164088685Y-90753796D02*
X164088685Y-91039510D01*
X164088685Y-91039510D02*
X164041066Y-91134748D01*
X164041066Y-91134748D02*
X163993447Y-91182368D01*
X163993447Y-91182368D02*
X163898209Y-91229987D01*
X163898209Y-91229987D02*
X163707733Y-91229987D01*
X163707733Y-91229987D02*
X163612495Y-91182368D01*
X164898209Y-91182368D02*
X164802971Y-91229987D01*
X164802971Y-91229987D02*
X164612495Y-91229987D01*
X164612495Y-91229987D02*
X164517257Y-91182368D01*
X164517257Y-91182368D02*
X164469638Y-91087129D01*
X164469638Y-91087129D02*
X164469638Y-90706177D01*
X164469638Y-90706177D02*
X164517257Y-90610939D01*
X164517257Y-90610939D02*
X164612495Y-90563320D01*
X164612495Y-90563320D02*
X164802971Y-90563320D01*
X164802971Y-90563320D02*
X164898209Y-90610939D01*
X164898209Y-90610939D02*
X164945828Y-90706177D01*
X164945828Y-90706177D02*
X164945828Y-90801415D01*
X164945828Y-90801415D02*
X164469638Y-90896653D01*
X166041067Y-90563320D02*
X166279162Y-91229987D01*
X166279162Y-91229987D02*
X166517257Y-90563320D01*
X167422019Y-91229987D02*
X166850591Y-91229987D01*
X167136305Y-91229987D02*
X167136305Y-90229987D01*
X167136305Y-90229987D02*
X167041067Y-90372844D01*
X167041067Y-90372844D02*
X166945829Y-90468082D01*
X166945829Y-90468082D02*
X166850591Y-90515701D01*
X147612493Y-91839931D02*
X147612493Y-92554216D01*
X147612493Y-92554216D02*
X147564874Y-92697073D01*
X147564874Y-92697073D02*
X147469636Y-92792312D01*
X147469636Y-92792312D02*
X147326779Y-92839931D01*
X147326779Y-92839931D02*
X147231541Y-92839931D01*
X148517255Y-92839931D02*
X148517255Y-92316121D01*
X148517255Y-92316121D02*
X148469636Y-92220883D01*
X148469636Y-92220883D02*
X148374398Y-92173264D01*
X148374398Y-92173264D02*
X148183922Y-92173264D01*
X148183922Y-92173264D02*
X148088684Y-92220883D01*
X148517255Y-92792312D02*
X148422017Y-92839931D01*
X148422017Y-92839931D02*
X148183922Y-92839931D01*
X148183922Y-92839931D02*
X148088684Y-92792312D01*
X148088684Y-92792312D02*
X148041065Y-92697073D01*
X148041065Y-92697073D02*
X148041065Y-92601835D01*
X148041065Y-92601835D02*
X148088684Y-92506597D01*
X148088684Y-92506597D02*
X148183922Y-92458978D01*
X148183922Y-92458978D02*
X148422017Y-92458978D01*
X148422017Y-92458978D02*
X148517255Y-92411359D01*
X149422017Y-92792312D02*
X149326779Y-92839931D01*
X149326779Y-92839931D02*
X149136303Y-92839931D01*
X149136303Y-92839931D02*
X149041065Y-92792312D01*
X149041065Y-92792312D02*
X148993446Y-92744692D01*
X148993446Y-92744692D02*
X148945827Y-92649454D01*
X148945827Y-92649454D02*
X148945827Y-92363740D01*
X148945827Y-92363740D02*
X148993446Y-92268502D01*
X148993446Y-92268502D02*
X149041065Y-92220883D01*
X149041065Y-92220883D02*
X149136303Y-92173264D01*
X149136303Y-92173264D02*
X149326779Y-92173264D01*
X149326779Y-92173264D02*
X149422017Y-92220883D01*
X149850589Y-92839931D02*
X149850589Y-91839931D01*
X149945827Y-92458978D02*
X150231541Y-92839931D01*
X150231541Y-92173264D02*
X149850589Y-92554216D01*
X150612494Y-92792312D02*
X150707732Y-92839931D01*
X150707732Y-92839931D02*
X150898208Y-92839931D01*
X150898208Y-92839931D02*
X150993446Y-92792312D01*
X150993446Y-92792312D02*
X151041065Y-92697073D01*
X151041065Y-92697073D02*
X151041065Y-92649454D01*
X151041065Y-92649454D02*
X150993446Y-92554216D01*
X150993446Y-92554216D02*
X150898208Y-92506597D01*
X150898208Y-92506597D02*
X150755351Y-92506597D01*
X150755351Y-92506597D02*
X150660113Y-92458978D01*
X150660113Y-92458978D02*
X150612494Y-92363740D01*
X150612494Y-92363740D02*
X150612494Y-92316121D01*
X150612494Y-92316121D02*
X150660113Y-92220883D01*
X150660113Y-92220883D02*
X150755351Y-92173264D01*
X150755351Y-92173264D02*
X150898208Y-92173264D01*
X150898208Y-92173264D02*
X150993446Y-92220883D01*
X151612494Y-92839931D02*
X151517256Y-92792312D01*
X151517256Y-92792312D02*
X151469637Y-92744692D01*
X151469637Y-92744692D02*
X151422018Y-92649454D01*
X151422018Y-92649454D02*
X151422018Y-92363740D01*
X151422018Y-92363740D02*
X151469637Y-92268502D01*
X151469637Y-92268502D02*
X151517256Y-92220883D01*
X151517256Y-92220883D02*
X151612494Y-92173264D01*
X151612494Y-92173264D02*
X151755351Y-92173264D01*
X151755351Y-92173264D02*
X151850589Y-92220883D01*
X151850589Y-92220883D02*
X151898208Y-92268502D01*
X151898208Y-92268502D02*
X151945827Y-92363740D01*
X151945827Y-92363740D02*
X151945827Y-92649454D01*
X151945827Y-92649454D02*
X151898208Y-92744692D01*
X151898208Y-92744692D02*
X151850589Y-92792312D01*
X151850589Y-92792312D02*
X151755351Y-92839931D01*
X151755351Y-92839931D02*
X151612494Y-92839931D01*
X152374399Y-92173264D02*
X152374399Y-92839931D01*
X152374399Y-92268502D02*
X152422018Y-92220883D01*
X152422018Y-92220883D02*
X152517256Y-92173264D01*
X152517256Y-92173264D02*
X152660113Y-92173264D01*
X152660113Y-92173264D02*
X152755351Y-92220883D01*
X152755351Y-92220883D02*
X152802970Y-92316121D01*
X152802970Y-92316121D02*
X152802970Y-92839931D01*
X154041066Y-92839931D02*
X154041066Y-91839931D01*
X154041066Y-92316121D02*
X154612494Y-92316121D01*
X154612494Y-92839931D02*
X154612494Y-91839931D01*
X155517256Y-92839931D02*
X155517256Y-92316121D01*
X155517256Y-92316121D02*
X155469637Y-92220883D01*
X155469637Y-92220883D02*
X155374399Y-92173264D01*
X155374399Y-92173264D02*
X155183923Y-92173264D01*
X155183923Y-92173264D02*
X155088685Y-92220883D01*
X155517256Y-92792312D02*
X155422018Y-92839931D01*
X155422018Y-92839931D02*
X155183923Y-92839931D01*
X155183923Y-92839931D02*
X155088685Y-92792312D01*
X155088685Y-92792312D02*
X155041066Y-92697073D01*
X155041066Y-92697073D02*
X155041066Y-92601835D01*
X155041066Y-92601835D02*
X155088685Y-92506597D01*
X155088685Y-92506597D02*
X155183923Y-92458978D01*
X155183923Y-92458978D02*
X155422018Y-92458978D01*
X155422018Y-92458978D02*
X155517256Y-92411359D01*
X156136304Y-92839931D02*
X156041066Y-92792312D01*
X156041066Y-92792312D02*
X155993447Y-92697073D01*
X155993447Y-92697073D02*
X155993447Y-91839931D01*
X156660114Y-92839931D02*
X156564876Y-92792312D01*
X156564876Y-92792312D02*
X156517257Y-92697073D01*
X156517257Y-92697073D02*
X156517257Y-91839931D01*
X147660112Y-93926065D02*
X147326779Y-93926065D01*
X147326779Y-94449875D02*
X147326779Y-93449875D01*
X147326779Y-93449875D02*
X147802969Y-93449875D01*
X148564874Y-94402256D02*
X148469636Y-94449875D01*
X148469636Y-94449875D02*
X148279160Y-94449875D01*
X148279160Y-94449875D02*
X148183922Y-94402256D01*
X148183922Y-94402256D02*
X148136303Y-94307017D01*
X148136303Y-94307017D02*
X148136303Y-93926065D01*
X148136303Y-93926065D02*
X148183922Y-93830827D01*
X148183922Y-93830827D02*
X148279160Y-93783208D01*
X148279160Y-93783208D02*
X148469636Y-93783208D01*
X148469636Y-93783208D02*
X148564874Y-93830827D01*
X148564874Y-93830827D02*
X148612493Y-93926065D01*
X148612493Y-93926065D02*
X148612493Y-94021303D01*
X148612493Y-94021303D02*
X148136303Y-94116541D01*
X149041065Y-94449875D02*
X149041065Y-93449875D01*
X149041065Y-93830827D02*
X149136303Y-93783208D01*
X149136303Y-93783208D02*
X149326779Y-93783208D01*
X149326779Y-93783208D02*
X149422017Y-93830827D01*
X149422017Y-93830827D02*
X149469636Y-93878446D01*
X149469636Y-93878446D02*
X149517255Y-93973684D01*
X149517255Y-93973684D02*
X149517255Y-94259398D01*
X149517255Y-94259398D02*
X149469636Y-94354636D01*
X149469636Y-94354636D02*
X149422017Y-94402256D01*
X149422017Y-94402256D02*
X149326779Y-94449875D01*
X149326779Y-94449875D02*
X149136303Y-94449875D01*
X149136303Y-94449875D02*
X149041065Y-94402256D01*
X150612494Y-93449875D02*
X151231541Y-93449875D01*
X151231541Y-93449875D02*
X150898208Y-93830827D01*
X150898208Y-93830827D02*
X151041065Y-93830827D01*
X151041065Y-93830827D02*
X151136303Y-93878446D01*
X151136303Y-93878446D02*
X151183922Y-93926065D01*
X151183922Y-93926065D02*
X151231541Y-94021303D01*
X151231541Y-94021303D02*
X151231541Y-94259398D01*
X151231541Y-94259398D02*
X151183922Y-94354636D01*
X151183922Y-94354636D02*
X151136303Y-94402256D01*
X151136303Y-94402256D02*
X151041065Y-94449875D01*
X151041065Y-94449875D02*
X150755351Y-94449875D01*
X150755351Y-94449875D02*
X150660113Y-94402256D01*
X150660113Y-94402256D02*
X150612494Y-94354636D01*
X151707732Y-94402256D02*
X151707732Y-94449875D01*
X151707732Y-94449875D02*
X151660113Y-94545113D01*
X151660113Y-94545113D02*
X151612494Y-94592732D01*
X152850589Y-93545113D02*
X152898208Y-93497494D01*
X152898208Y-93497494D02*
X152993446Y-93449875D01*
X152993446Y-93449875D02*
X153231541Y-93449875D01*
X153231541Y-93449875D02*
X153326779Y-93497494D01*
X153326779Y-93497494D02*
X153374398Y-93545113D01*
X153374398Y-93545113D02*
X153422017Y-93640351D01*
X153422017Y-93640351D02*
X153422017Y-93735589D01*
X153422017Y-93735589D02*
X153374398Y-93878446D01*
X153374398Y-93878446D02*
X152802970Y-94449875D01*
X152802970Y-94449875D02*
X153422017Y-94449875D01*
X154041065Y-93449875D02*
X154136303Y-93449875D01*
X154136303Y-93449875D02*
X154231541Y-93497494D01*
X154231541Y-93497494D02*
X154279160Y-93545113D01*
X154279160Y-93545113D02*
X154326779Y-93640351D01*
X154326779Y-93640351D02*
X154374398Y-93830827D01*
X154374398Y-93830827D02*
X154374398Y-94068922D01*
X154374398Y-94068922D02*
X154326779Y-94259398D01*
X154326779Y-94259398D02*
X154279160Y-94354636D01*
X154279160Y-94354636D02*
X154231541Y-94402256D01*
X154231541Y-94402256D02*
X154136303Y-94449875D01*
X154136303Y-94449875D02*
X154041065Y-94449875D01*
X154041065Y-94449875D02*
X153945827Y-94402256D01*
X153945827Y-94402256D02*
X153898208Y-94354636D01*
X153898208Y-94354636D02*
X153850589Y-94259398D01*
X153850589Y-94259398D02*
X153802970Y-94068922D01*
X153802970Y-94068922D02*
X153802970Y-93830827D01*
X153802970Y-93830827D02*
X153850589Y-93640351D01*
X153850589Y-93640351D02*
X153898208Y-93545113D01*
X153898208Y-93545113D02*
X153945827Y-93497494D01*
X153945827Y-93497494D02*
X154041065Y-93449875D01*
X154755351Y-93545113D02*
X154802970Y-93497494D01*
X154802970Y-93497494D02*
X154898208Y-93449875D01*
X154898208Y-93449875D02*
X155136303Y-93449875D01*
X155136303Y-93449875D02*
X155231541Y-93497494D01*
X155231541Y-93497494D02*
X155279160Y-93545113D01*
X155279160Y-93545113D02*
X155326779Y-93640351D01*
X155326779Y-93640351D02*
X155326779Y-93735589D01*
X155326779Y-93735589D02*
X155279160Y-93878446D01*
X155279160Y-93878446D02*
X154707732Y-94449875D01*
X154707732Y-94449875D02*
X155326779Y-94449875D01*
X156231541Y-93449875D02*
X155755351Y-93449875D01*
X155755351Y-93449875D02*
X155707732Y-93926065D01*
X155707732Y-93926065D02*
X155755351Y-93878446D01*
X155755351Y-93878446D02*
X155850589Y-93830827D01*
X155850589Y-93830827D02*
X156088684Y-93830827D01*
X156088684Y-93830827D02*
X156183922Y-93878446D01*
X156183922Y-93878446D02*
X156231541Y-93926065D01*
X156231541Y-93926065D02*
X156279160Y-94021303D01*
X156279160Y-94021303D02*
X156279160Y-94259398D01*
X156279160Y-94259398D02*
X156231541Y-94354636D01*
X156231541Y-94354636D02*
X156183922Y-94402256D01*
X156183922Y-94402256D02*
X156088684Y-94449875D01*
X156088684Y-94449875D02*
X155850589Y-94449875D01*
X155850589Y-94449875D02*
X155755351Y-94402256D01*
X155755351Y-94402256D02*
X155707732Y-94354636D01*
X102715000Y-53570238D02*
X122715000Y-53570238D01*
X122715000Y-68570238D01*
X102715000Y-68570238D01*
X102715000Y-53570238D01*
X99200000Y-73000000D02*
X127000000Y-73000000D01*
X127000000Y-100300000D01*
X99200000Y-100300000D01*
X99200000Y-73000000D01*
X156166667Y-71907200D02*
X156309524Y-71954819D01*
X156309524Y-71954819D02*
X156547619Y-71954819D01*
X156547619Y-71954819D02*
X156642857Y-71907200D01*
X156642857Y-71907200D02*
X156690476Y-71859580D01*
X156690476Y-71859580D02*
X156738095Y-71764342D01*
X156738095Y-71764342D02*
X156738095Y-71669104D01*
X156738095Y-71669104D02*
X156690476Y-71573866D01*
X156690476Y-71573866D02*
X156642857Y-71526247D01*
X156642857Y-71526247D02*
X156547619Y-71478628D01*
X156547619Y-71478628D02*
X156357143Y-71431009D01*
X156357143Y-71431009D02*
X156261905Y-71383390D01*
X156261905Y-71383390D02*
X156214286Y-71335771D01*
X156214286Y-71335771D02*
X156166667Y-71240533D01*
X156166667Y-71240533D02*
X156166667Y-71145295D01*
X156166667Y-71145295D02*
X156214286Y-71050057D01*
X156214286Y-71050057D02*
X156261905Y-71002438D01*
X156261905Y-71002438D02*
X156357143Y-70954819D01*
X156357143Y-70954819D02*
X156595238Y-70954819D01*
X156595238Y-70954819D02*
X156738095Y-71002438D01*
X157071429Y-70954819D02*
X157309524Y-71954819D01*
X157309524Y-71954819D02*
X157500000Y-71240533D01*
X157500000Y-71240533D02*
X157690476Y-71954819D01*
X157690476Y-71954819D02*
X157928572Y-70954819D01*
X158261905Y-71050057D02*
X158309524Y-71002438D01*
X158309524Y-71002438D02*
X158404762Y-70954819D01*
X158404762Y-70954819D02*
X158642857Y-70954819D01*
X158642857Y-70954819D02*
X158738095Y-71002438D01*
X158738095Y-71002438D02*
X158785714Y-71050057D01*
X158785714Y-71050057D02*
X158833333Y-71145295D01*
X158833333Y-71145295D02*
X158833333Y-71240533D01*
X158833333Y-71240533D02*
X158785714Y-71383390D01*
X158785714Y-71383390D02*
X158214286Y-71954819D01*
X158214286Y-71954819D02*
X158833333Y-71954819D01*
X145166667Y-80407200D02*
X145309524Y-80454819D01*
X145309524Y-80454819D02*
X145547619Y-80454819D01*
X145547619Y-80454819D02*
X145642857Y-80407200D01*
X145642857Y-80407200D02*
X145690476Y-80359580D01*
X145690476Y-80359580D02*
X145738095Y-80264342D01*
X145738095Y-80264342D02*
X145738095Y-80169104D01*
X145738095Y-80169104D02*
X145690476Y-80073866D01*
X145690476Y-80073866D02*
X145642857Y-80026247D01*
X145642857Y-80026247D02*
X145547619Y-79978628D01*
X145547619Y-79978628D02*
X145357143Y-79931009D01*
X145357143Y-79931009D02*
X145261905Y-79883390D01*
X145261905Y-79883390D02*
X145214286Y-79835771D01*
X145214286Y-79835771D02*
X145166667Y-79740533D01*
X145166667Y-79740533D02*
X145166667Y-79645295D01*
X145166667Y-79645295D02*
X145214286Y-79550057D01*
X145214286Y-79550057D02*
X145261905Y-79502438D01*
X145261905Y-79502438D02*
X145357143Y-79454819D01*
X145357143Y-79454819D02*
X145595238Y-79454819D01*
X145595238Y-79454819D02*
X145738095Y-79502438D01*
X146071429Y-79454819D02*
X146309524Y-80454819D01*
X146309524Y-80454819D02*
X146500000Y-79740533D01*
X146500000Y-79740533D02*
X146690476Y-80454819D01*
X146690476Y-80454819D02*
X146928572Y-79454819D01*
X147738095Y-79788152D02*
X147738095Y-80454819D01*
X147500000Y-79407200D02*
X147261905Y-80121485D01*
X147261905Y-80121485D02*
X147880952Y-80121485D01*
X134364761Y-85454819D02*
X134031428Y-84978628D01*
X133793333Y-85454819D02*
X133793333Y-84454819D01*
X133793333Y-84454819D02*
X134174285Y-84454819D01*
X134174285Y-84454819D02*
X134269523Y-84502438D01*
X134269523Y-84502438D02*
X134317142Y-84550057D01*
X134317142Y-84550057D02*
X134364761Y-84645295D01*
X134364761Y-84645295D02*
X134364761Y-84788152D01*
X134364761Y-84788152D02*
X134317142Y-84883390D01*
X134317142Y-84883390D02*
X134269523Y-84931009D01*
X134269523Y-84931009D02*
X134174285Y-84978628D01*
X134174285Y-84978628D02*
X133793333Y-84978628D01*
X134650476Y-84454819D02*
X134983809Y-85454819D01*
X134983809Y-85454819D02*
X135317142Y-84454819D01*
X136174285Y-85454819D02*
X135602857Y-85454819D01*
X135888571Y-85454819D02*
X135888571Y-84454819D01*
X135888571Y-84454819D02*
X135793333Y-84597676D01*
X135793333Y-84597676D02*
X135698095Y-84692914D01*
X135698095Y-84692914D02*
X135602857Y-84740533D01*
X133336667Y-80407200D02*
X133479524Y-80454819D01*
X133479524Y-80454819D02*
X133717619Y-80454819D01*
X133717619Y-80454819D02*
X133812857Y-80407200D01*
X133812857Y-80407200D02*
X133860476Y-80359580D01*
X133860476Y-80359580D02*
X133908095Y-80264342D01*
X133908095Y-80264342D02*
X133908095Y-80169104D01*
X133908095Y-80169104D02*
X133860476Y-80073866D01*
X133860476Y-80073866D02*
X133812857Y-80026247D01*
X133812857Y-80026247D02*
X133717619Y-79978628D01*
X133717619Y-79978628D02*
X133527143Y-79931009D01*
X133527143Y-79931009D02*
X133431905Y-79883390D01*
X133431905Y-79883390D02*
X133384286Y-79835771D01*
X133384286Y-79835771D02*
X133336667Y-79740533D01*
X133336667Y-79740533D02*
X133336667Y-79645295D01*
X133336667Y-79645295D02*
X133384286Y-79550057D01*
X133384286Y-79550057D02*
X133431905Y-79502438D01*
X133431905Y-79502438D02*
X133527143Y-79454819D01*
X133527143Y-79454819D02*
X133765238Y-79454819D01*
X133765238Y-79454819D02*
X133908095Y-79502438D01*
X134241429Y-79454819D02*
X134479524Y-80454819D01*
X134479524Y-80454819D02*
X134670000Y-79740533D01*
X134670000Y-79740533D02*
X134860476Y-80454819D01*
X134860476Y-80454819D02*
X135098572Y-79454819D01*
X135955714Y-79454819D02*
X135479524Y-79454819D01*
X135479524Y-79454819D02*
X135431905Y-79931009D01*
X135431905Y-79931009D02*
X135479524Y-79883390D01*
X135479524Y-79883390D02*
X135574762Y-79835771D01*
X135574762Y-79835771D02*
X135812857Y-79835771D01*
X135812857Y-79835771D02*
X135908095Y-79883390D01*
X135908095Y-79883390D02*
X135955714Y-79931009D01*
X135955714Y-79931009D02*
X136003333Y-80026247D01*
X136003333Y-80026247D02*
X136003333Y-80264342D01*
X136003333Y-80264342D02*
X135955714Y-80359580D01*
X135955714Y-80359580D02*
X135908095Y-80407200D01*
X135908095Y-80407200D02*
X135812857Y-80454819D01*
X135812857Y-80454819D02*
X135574762Y-80454819D01*
X135574762Y-80454819D02*
X135479524Y-80407200D01*
X135479524Y-80407200D02*
X135431905Y-80359580D01*
X129166666Y-59904819D02*
X129166666Y-60619104D01*
X129166666Y-60619104D02*
X129119047Y-60761961D01*
X129119047Y-60761961D02*
X129023809Y-60857200D01*
X129023809Y-60857200D02*
X128880952Y-60904819D01*
X128880952Y-60904819D02*
X128785714Y-60904819D01*
X129547619Y-59904819D02*
X130214285Y-59904819D01*
X130214285Y-59904819D02*
X129785714Y-60904819D01*
X144261905Y-54954819D02*
X144261905Y-53954819D01*
X144261905Y-53954819D02*
X144500000Y-53954819D01*
X144500000Y-53954819D02*
X144642857Y-54002438D01*
X144642857Y-54002438D02*
X144738095Y-54097676D01*
X144738095Y-54097676D02*
X144785714Y-54192914D01*
X144785714Y-54192914D02*
X144833333Y-54383390D01*
X144833333Y-54383390D02*
X144833333Y-54526247D01*
X144833333Y-54526247D02*
X144785714Y-54716723D01*
X144785714Y-54716723D02*
X144738095Y-54811961D01*
X144738095Y-54811961D02*
X144642857Y-54907200D01*
X144642857Y-54907200D02*
X144500000Y-54954819D01*
X144500000Y-54954819D02*
X144261905Y-54954819D01*
X145785714Y-54954819D02*
X145214286Y-54954819D01*
X145500000Y-54954819D02*
X145500000Y-53954819D01*
X145500000Y-53954819D02*
X145404762Y-54097676D01*
X145404762Y-54097676D02*
X145309524Y-54192914D01*
X145309524Y-54192914D02*
X145214286Y-54240533D01*
X119764819Y-75333333D02*
X120479104Y-75333333D01*
X120479104Y-75333333D02*
X120621961Y-75380952D01*
X120621961Y-75380952D02*
X120717200Y-75476190D01*
X120717200Y-75476190D02*
X120764819Y-75619047D01*
X120764819Y-75619047D02*
X120764819Y-75714285D01*
X119764819Y-74428571D02*
X119764819Y-74619047D01*
X119764819Y-74619047D02*
X119812438Y-74714285D01*
X119812438Y-74714285D02*
X119860057Y-74761904D01*
X119860057Y-74761904D02*
X120002914Y-74857142D01*
X120002914Y-74857142D02*
X120193390Y-74904761D01*
X120193390Y-74904761D02*
X120574342Y-74904761D01*
X120574342Y-74904761D02*
X120669580Y-74857142D01*
X120669580Y-74857142D02*
X120717200Y-74809523D01*
X120717200Y-74809523D02*
X120764819Y-74714285D01*
X120764819Y-74714285D02*
X120764819Y-74523809D01*
X120764819Y-74523809D02*
X120717200Y-74428571D01*
X120717200Y-74428571D02*
X120669580Y-74380952D01*
X120669580Y-74380952D02*
X120574342Y-74333333D01*
X120574342Y-74333333D02*
X120336247Y-74333333D01*
X120336247Y-74333333D02*
X120241009Y-74380952D01*
X120241009Y-74380952D02*
X120193390Y-74428571D01*
X120193390Y-74428571D02*
X120145771Y-74523809D01*
X120145771Y-74523809D02*
X120145771Y-74714285D01*
X120145771Y-74714285D02*
X120193390Y-74809523D01*
X120193390Y-74809523D02*
X120241009Y-74857142D01*
X120241009Y-74857142D02*
X120336247Y-74904761D01*
X158253333Y-67954819D02*
X157920000Y-67478628D01*
X157681905Y-67954819D02*
X157681905Y-66954819D01*
X157681905Y-66954819D02*
X158062857Y-66954819D01*
X158062857Y-66954819D02*
X158158095Y-67002438D01*
X158158095Y-67002438D02*
X158205714Y-67050057D01*
X158205714Y-67050057D02*
X158253333Y-67145295D01*
X158253333Y-67145295D02*
X158253333Y-67288152D01*
X158253333Y-67288152D02*
X158205714Y-67383390D01*
X158205714Y-67383390D02*
X158158095Y-67431009D01*
X158158095Y-67431009D02*
X158062857Y-67478628D01*
X158062857Y-67478628D02*
X157681905Y-67478628D01*
X158586667Y-66954819D02*
X159205714Y-66954819D01*
X159205714Y-66954819D02*
X158872381Y-67335771D01*
X158872381Y-67335771D02*
X159015238Y-67335771D01*
X159015238Y-67335771D02*
X159110476Y-67383390D01*
X159110476Y-67383390D02*
X159158095Y-67431009D01*
X159158095Y-67431009D02*
X159205714Y-67526247D01*
X159205714Y-67526247D02*
X159205714Y-67764342D01*
X159205714Y-67764342D02*
X159158095Y-67859580D01*
X159158095Y-67859580D02*
X159110476Y-67907200D01*
X159110476Y-67907200D02*
X159015238Y-67954819D01*
X159015238Y-67954819D02*
X158729524Y-67954819D01*
X158729524Y-67954819D02*
X158634286Y-67907200D01*
X158634286Y-67907200D02*
X158586667Y-67859580D01*
X156586667Y-58907200D02*
X156729524Y-58954819D01*
X156729524Y-58954819D02*
X156967619Y-58954819D01*
X156967619Y-58954819D02*
X157062857Y-58907200D01*
X157062857Y-58907200D02*
X157110476Y-58859580D01*
X157110476Y-58859580D02*
X157158095Y-58764342D01*
X157158095Y-58764342D02*
X157158095Y-58669104D01*
X157158095Y-58669104D02*
X157110476Y-58573866D01*
X157110476Y-58573866D02*
X157062857Y-58526247D01*
X157062857Y-58526247D02*
X156967619Y-58478628D01*
X156967619Y-58478628D02*
X156777143Y-58431009D01*
X156777143Y-58431009D02*
X156681905Y-58383390D01*
X156681905Y-58383390D02*
X156634286Y-58335771D01*
X156634286Y-58335771D02*
X156586667Y-58240533D01*
X156586667Y-58240533D02*
X156586667Y-58145295D01*
X156586667Y-58145295D02*
X156634286Y-58050057D01*
X156634286Y-58050057D02*
X156681905Y-58002438D01*
X156681905Y-58002438D02*
X156777143Y-57954819D01*
X156777143Y-57954819D02*
X157015238Y-57954819D01*
X157015238Y-57954819D02*
X157158095Y-58002438D01*
X157491429Y-57954819D02*
X157729524Y-58954819D01*
X157729524Y-58954819D02*
X157920000Y-58240533D01*
X157920000Y-58240533D02*
X158110476Y-58954819D01*
X158110476Y-58954819D02*
X158348572Y-57954819D01*
X159253333Y-58954819D02*
X158681905Y-58954819D01*
X158967619Y-58954819D02*
X158967619Y-57954819D01*
X158967619Y-57954819D02*
X158872381Y-58097676D01*
X158872381Y-58097676D02*
X158777143Y-58192914D01*
X158777143Y-58192914D02*
X158681905Y-58240533D01*
X156336667Y-81907200D02*
X156479524Y-81954819D01*
X156479524Y-81954819D02*
X156717619Y-81954819D01*
X156717619Y-81954819D02*
X156812857Y-81907200D01*
X156812857Y-81907200D02*
X156860476Y-81859580D01*
X156860476Y-81859580D02*
X156908095Y-81764342D01*
X156908095Y-81764342D02*
X156908095Y-81669104D01*
X156908095Y-81669104D02*
X156860476Y-81573866D01*
X156860476Y-81573866D02*
X156812857Y-81526247D01*
X156812857Y-81526247D02*
X156717619Y-81478628D01*
X156717619Y-81478628D02*
X156527143Y-81431009D01*
X156527143Y-81431009D02*
X156431905Y-81383390D01*
X156431905Y-81383390D02*
X156384286Y-81335771D01*
X156384286Y-81335771D02*
X156336667Y-81240533D01*
X156336667Y-81240533D02*
X156336667Y-81145295D01*
X156336667Y-81145295D02*
X156384286Y-81050057D01*
X156384286Y-81050057D02*
X156431905Y-81002438D01*
X156431905Y-81002438D02*
X156527143Y-80954819D01*
X156527143Y-80954819D02*
X156765238Y-80954819D01*
X156765238Y-80954819D02*
X156908095Y-81002438D01*
X157241429Y-80954819D02*
X157479524Y-81954819D01*
X157479524Y-81954819D02*
X157670000Y-81240533D01*
X157670000Y-81240533D02*
X157860476Y-81954819D01*
X157860476Y-81954819D02*
X158098572Y-80954819D01*
X158384286Y-80954819D02*
X159003333Y-80954819D01*
X159003333Y-80954819D02*
X158670000Y-81335771D01*
X158670000Y-81335771D02*
X158812857Y-81335771D01*
X158812857Y-81335771D02*
X158908095Y-81383390D01*
X158908095Y-81383390D02*
X158955714Y-81431009D01*
X158955714Y-81431009D02*
X159003333Y-81526247D01*
X159003333Y-81526247D02*
X159003333Y-81764342D01*
X159003333Y-81764342D02*
X158955714Y-81859580D01*
X158955714Y-81859580D02*
X158908095Y-81907200D01*
X158908095Y-81907200D02*
X158812857Y-81954819D01*
X158812857Y-81954819D02*
X158527143Y-81954819D01*
X158527143Y-81954819D02*
X158431905Y-81907200D01*
X158431905Y-81907200D02*
X158384286Y-81859580D01*
X100279819Y-66903571D02*
X100994104Y-66903571D01*
X100994104Y-66903571D02*
X101136961Y-66951190D01*
X101136961Y-66951190D02*
X101232200Y-67046428D01*
X101232200Y-67046428D02*
X101279819Y-67189285D01*
X101279819Y-67189285D02*
X101279819Y-67284523D01*
X100279819Y-65951190D02*
X100279819Y-66427380D01*
X100279819Y-66427380D02*
X100756009Y-66474999D01*
X100756009Y-66474999D02*
X100708390Y-66427380D01*
X100708390Y-66427380D02*
X100660771Y-66332142D01*
X100660771Y-66332142D02*
X100660771Y-66094047D01*
X100660771Y-66094047D02*
X100708390Y-65998809D01*
X100708390Y-65998809D02*
X100756009Y-65951190D01*
X100756009Y-65951190D02*
X100851247Y-65903571D01*
X100851247Y-65903571D02*
X101089342Y-65903571D01*
X101089342Y-65903571D02*
X101184580Y-65951190D01*
X101184580Y-65951190D02*
X101232200Y-65998809D01*
X101232200Y-65998809D02*
X101279819Y-66094047D01*
X101279819Y-66094047D02*
X101279819Y-66332142D01*
X101279819Y-66332142D02*
X101232200Y-66427380D01*
X101232200Y-66427380D02*
X101184580Y-66474999D01*
D11*
%TO.C,G\u002A\u002A\u002A*%
G36*
X143133355Y-90720837D02*
G01*
X143258846Y-90720847D01*
X143376514Y-90720866D01*
X143486614Y-90720894D01*
X143589401Y-90720933D01*
X143685130Y-90720982D01*
X143774056Y-90721045D01*
X143856435Y-90721120D01*
X143932520Y-90721211D01*
X144002569Y-90721316D01*
X144066834Y-90721439D01*
X144125573Y-90721579D01*
X144179039Y-90721738D01*
X144227488Y-90721916D01*
X144271175Y-90722115D01*
X144310355Y-90722336D01*
X144345282Y-90722580D01*
X144376213Y-90722848D01*
X144403403Y-90723141D01*
X144427105Y-90723460D01*
X144447576Y-90723805D01*
X144465070Y-90724179D01*
X144479843Y-90724582D01*
X144492150Y-90725015D01*
X144502246Y-90725480D01*
X144510385Y-90725976D01*
X144516823Y-90726506D01*
X144521661Y-90727050D01*
X144604081Y-90742047D01*
X144683805Y-90764757D01*
X144760396Y-90794868D01*
X144833419Y-90832072D01*
X144902436Y-90876060D01*
X144967012Y-90926521D01*
X145026711Y-90983146D01*
X145081097Y-91045627D01*
X145129733Y-91113653D01*
X145172183Y-91186916D01*
X145173506Y-91189481D01*
X145189583Y-91220798D01*
X145834405Y-91220816D01*
X146479227Y-91220834D01*
X146478155Y-91492180D01*
X146477083Y-91763526D01*
X146431250Y-91787875D01*
X146385416Y-91812225D01*
X146383110Y-92563404D01*
X146382826Y-92657424D01*
X146382566Y-92743509D01*
X146382321Y-92822056D01*
X146382079Y-92893462D01*
X146381829Y-92958125D01*
X146381559Y-93016444D01*
X146381259Y-93068815D01*
X146380917Y-93115636D01*
X146380521Y-93157305D01*
X146380062Y-93194220D01*
X146379527Y-93226777D01*
X146378906Y-93255375D01*
X146378187Y-93280412D01*
X146377359Y-93302284D01*
X146376410Y-93321391D01*
X146375331Y-93338128D01*
X146374108Y-93352894D01*
X146372732Y-93366087D01*
X146371191Y-93378104D01*
X146369473Y-93389343D01*
X146367569Y-93400201D01*
X146365465Y-93411076D01*
X146363152Y-93422366D01*
X146360618Y-93434468D01*
X146358252Y-93445834D01*
X146349816Y-93481121D01*
X146338300Y-93521225D01*
X146324561Y-93563616D01*
X146309461Y-93605769D01*
X146293858Y-93645155D01*
X146279442Y-93677524D01*
X146241904Y-93749507D01*
X146200476Y-93816076D01*
X146153915Y-93878976D01*
X146100978Y-93939951D01*
X146068977Y-93973017D01*
X146001408Y-94035500D01*
X145931132Y-94090606D01*
X145857604Y-94138616D01*
X145780275Y-94179812D01*
X145698599Y-94214473D01*
X145612029Y-94242882D01*
X145520018Y-94265318D01*
X145487212Y-94271669D01*
X145435416Y-94281075D01*
X144589583Y-94281699D01*
X144505755Y-94281743D01*
X144423884Y-94281753D01*
X144344380Y-94281730D01*
X144267656Y-94281674D01*
X144194123Y-94281588D01*
X144124194Y-94281473D01*
X144058280Y-94281329D01*
X143996794Y-94281159D01*
X143940146Y-94280963D01*
X143888750Y-94280744D01*
X143843016Y-94280502D01*
X143803358Y-94280239D01*
X143770185Y-94279955D01*
X143743912Y-94279654D01*
X143724949Y-94279335D01*
X143713708Y-94279000D01*
X143711165Y-94278832D01*
X143617403Y-94264688D01*
X143526203Y-94242703D01*
X143437919Y-94213045D01*
X143352907Y-94175885D01*
X143271522Y-94131392D01*
X143194119Y-94079737D01*
X143121053Y-94021089D01*
X143067975Y-93971275D01*
X143025308Y-93925893D01*
X142985028Y-93877530D01*
X142945947Y-93824640D01*
X142906878Y-93765674D01*
X142892617Y-93742709D01*
X142879243Y-93720834D01*
X142202091Y-93720834D01*
X141524939Y-93720834D01*
X141526011Y-93449668D01*
X141527083Y-93178502D01*
X141591666Y-93144016D01*
X141656250Y-93109530D01*
X141657301Y-92219901D01*
X141658352Y-91330273D01*
X141591728Y-91295345D01*
X141525105Y-91260417D01*
X141525054Y-91002084D01*
X141589583Y-91002084D01*
X141589583Y-91218750D01*
X141656250Y-91254205D01*
X141722916Y-91289659D01*
X141723967Y-92219017D01*
X141725018Y-93148375D01*
X141657300Y-93184307D01*
X141589583Y-93220238D01*
X141589583Y-93436161D01*
X141589583Y-93652084D01*
X142252671Y-93653138D01*
X142915759Y-93654192D01*
X142946047Y-93703138D01*
X142974875Y-93748660D01*
X143001213Y-93787929D01*
X143025994Y-93822290D01*
X143047585Y-93849948D01*
X143107334Y-93916999D01*
X143172785Y-93978230D01*
X143243371Y-94033289D01*
X143318527Y-94081825D01*
X143397686Y-94123487D01*
X143480281Y-94157924D01*
X143565748Y-94184786D01*
X143601781Y-94193594D01*
X143613136Y-94196160D01*
X143623626Y-94198520D01*
X143633621Y-94200683D01*
X143643492Y-94202659D01*
X143653610Y-94204455D01*
X143664344Y-94206081D01*
X143676066Y-94207545D01*
X143689144Y-94208856D01*
X143703951Y-94210022D01*
X143720856Y-94211054D01*
X143740229Y-94211958D01*
X143762441Y-94212744D01*
X143787863Y-94213421D01*
X143816864Y-94213997D01*
X143849816Y-94214482D01*
X143887088Y-94214883D01*
X143929051Y-94215210D01*
X143976075Y-94215471D01*
X144028531Y-94215676D01*
X144086789Y-94215832D01*
X144151220Y-94215949D01*
X144222193Y-94216035D01*
X144300079Y-94216099D01*
X144385250Y-94216150D01*
X144478074Y-94216197D01*
X144561622Y-94216238D01*
X144677154Y-94216275D01*
X144784371Y-94216263D01*
X144883290Y-94216200D01*
X144973931Y-94216088D01*
X145056311Y-94215925D01*
X145130449Y-94215712D01*
X145196362Y-94215449D01*
X145254068Y-94215136D01*
X145303586Y-94214772D01*
X145344934Y-94214357D01*
X145378130Y-94213892D01*
X145403192Y-94213377D01*
X145420138Y-94212810D01*
X145428289Y-94212277D01*
X145515637Y-94198654D01*
X145601635Y-94177061D01*
X145685577Y-94147838D01*
X145766754Y-94111325D01*
X145844460Y-94067859D01*
X145917989Y-94017781D01*
X145986632Y-93961429D01*
X146022870Y-93927064D01*
X146084284Y-93860162D01*
X146138544Y-93789295D01*
X146185743Y-93714271D01*
X146225979Y-93634900D01*
X146259347Y-93550992D01*
X146285943Y-93462356D01*
X146305862Y-93368803D01*
X146306936Y-93362500D01*
X146307837Y-93356710D01*
X146308663Y-93350283D01*
X146309419Y-93342847D01*
X146310109Y-93334031D01*
X146310737Y-93323462D01*
X146311306Y-93310769D01*
X146311821Y-93295580D01*
X146312285Y-93277523D01*
X146312703Y-93256226D01*
X146313079Y-93231317D01*
X146313416Y-93202424D01*
X146313718Y-93169175D01*
X146313990Y-93131199D01*
X146314236Y-93088123D01*
X146314458Y-93039576D01*
X146314663Y-92985185D01*
X146314852Y-92924579D01*
X146315031Y-92857386D01*
X146315203Y-92783234D01*
X146315373Y-92701751D01*
X146315543Y-92612565D01*
X146315665Y-92545834D01*
X146317050Y-91772917D01*
X146365817Y-91747320D01*
X146414583Y-91721723D01*
X146414583Y-91505653D01*
X146414583Y-91289584D01*
X145780122Y-91287500D01*
X145145662Y-91285417D01*
X145123541Y-91239584D01*
X145083878Y-91166544D01*
X145038177Y-91099058D01*
X144986710Y-91037368D01*
X144929751Y-90981713D01*
X144867571Y-90932334D01*
X144800442Y-90889473D01*
X144728638Y-90853370D01*
X144654180Y-90824837D01*
X144602062Y-90809701D01*
X144549220Y-90798537D01*
X144493034Y-90790868D01*
X144447916Y-90787171D01*
X144436856Y-90786753D01*
X144417562Y-90786364D01*
X144390133Y-90786003D01*
X144354669Y-90785671D01*
X144311269Y-90785368D01*
X144260033Y-90785094D01*
X144201059Y-90784849D01*
X144134448Y-90784633D01*
X144060298Y-90784448D01*
X143978709Y-90784292D01*
X143889780Y-90784166D01*
X143793610Y-90784070D01*
X143690300Y-90784005D01*
X143579947Y-90783971D01*
X143462653Y-90783967D01*
X143338515Y-90783995D01*
X143207634Y-90784053D01*
X143070108Y-90784144D01*
X142985416Y-90784212D01*
X141589583Y-90785417D01*
X141589583Y-91002084D01*
X141525054Y-91002084D01*
X141525052Y-90990625D01*
X141525012Y-90785417D01*
X141525000Y-90720834D01*
X142999786Y-90720834D01*
X143133355Y-90720837D01*
G37*
G36*
X146257370Y-91536079D02*
G01*
X146256250Y-91630630D01*
X146210416Y-91654730D01*
X146164583Y-91678830D01*
X146162349Y-92490457D01*
X146162083Y-92588889D01*
X146161845Y-92679361D01*
X146161621Y-92762248D01*
X146161400Y-92837921D01*
X146161170Y-92906755D01*
X146160921Y-92969124D01*
X146160639Y-93025400D01*
X146160315Y-93075958D01*
X146159935Y-93121170D01*
X146159488Y-93161411D01*
X146158963Y-93197054D01*
X146158348Y-93228472D01*
X146157631Y-93256039D01*
X146156801Y-93280128D01*
X146155846Y-93301113D01*
X146154754Y-93319367D01*
X146153514Y-93335265D01*
X146152114Y-93349179D01*
X146150543Y-93361482D01*
X146148788Y-93372550D01*
X146146838Y-93382754D01*
X146144682Y-93392468D01*
X146142308Y-93402067D01*
X146139704Y-93411923D01*
X146136859Y-93422410D01*
X146133761Y-93433901D01*
X146132824Y-93437435D01*
X146107820Y-93516325D01*
X146075657Y-93591384D01*
X146036751Y-93662254D01*
X145991519Y-93728579D01*
X145940377Y-93789999D01*
X145883741Y-93846158D01*
X145822028Y-93896698D01*
X145755652Y-93941261D01*
X145685032Y-93979489D01*
X145610583Y-94011025D01*
X145532720Y-94035511D01*
X145451862Y-94052589D01*
X145410416Y-94058241D01*
X145401218Y-94058787D01*
X145383828Y-94059293D01*
X145358391Y-94059758D01*
X145325047Y-94060183D01*
X145283940Y-94060566D01*
X145235212Y-94060907D01*
X145179005Y-94061205D01*
X145115461Y-94061459D01*
X145044724Y-94061670D01*
X144966936Y-94061836D01*
X144882238Y-94061957D01*
X144790774Y-94062031D01*
X144692686Y-94062059D01*
X144588115Y-94062040D01*
X144562500Y-94062029D01*
X144463663Y-94061972D01*
X144372812Y-94061903D01*
X144289599Y-94061819D01*
X144213677Y-94061718D01*
X144144697Y-94061596D01*
X144082312Y-94061451D01*
X144026174Y-94061281D01*
X143975935Y-94061082D01*
X143931249Y-94060852D01*
X143891767Y-94060589D01*
X143857141Y-94060290D01*
X143827024Y-94059952D01*
X143801068Y-94059572D01*
X143778926Y-94059149D01*
X143760250Y-94058678D01*
X143744691Y-94058158D01*
X143731903Y-94057586D01*
X143721538Y-94056960D01*
X143713248Y-94056276D01*
X143706685Y-94055532D01*
X143706553Y-94055514D01*
X143625770Y-94040524D01*
X143547310Y-94017714D01*
X143471672Y-93987397D01*
X143399354Y-93949884D01*
X143330854Y-93905488D01*
X143266671Y-93854520D01*
X143207303Y-93797292D01*
X143153249Y-93734115D01*
X143120331Y-93688730D01*
X143111192Y-93674991D01*
X143104182Y-93663989D01*
X143100380Y-93657438D01*
X143100000Y-93656438D01*
X143104095Y-93656196D01*
X143116101Y-93655961D01*
X143135590Y-93655735D01*
X143162141Y-93655518D01*
X143195328Y-93655313D01*
X143234727Y-93655120D01*
X143279913Y-93654941D01*
X143330464Y-93654777D01*
X143385954Y-93654629D01*
X143445958Y-93654500D01*
X143510054Y-93654390D01*
X143577817Y-93654300D01*
X143648821Y-93654232D01*
X143722644Y-93654188D01*
X143798861Y-93654168D01*
X143820391Y-93654167D01*
X143927311Y-93654140D01*
X144026348Y-93654059D01*
X144117465Y-93653925D01*
X144200623Y-93653737D01*
X144275784Y-93653496D01*
X144342911Y-93653203D01*
X144401966Y-93652856D01*
X144452910Y-93652458D01*
X144495707Y-93652007D01*
X144530317Y-93651504D01*
X144556704Y-93650949D01*
X144574829Y-93650342D01*
X144583933Y-93649764D01*
X144660929Y-93637790D01*
X144735588Y-93617990D01*
X144807376Y-93590674D01*
X144875757Y-93556151D01*
X144940196Y-93514732D01*
X145000158Y-93466726D01*
X145055108Y-93412443D01*
X145104511Y-93352194D01*
X145109511Y-93345317D01*
X145129224Y-93315388D01*
X145149615Y-93280044D01*
X145169502Y-93241681D01*
X145187701Y-93202700D01*
X145203029Y-93165499D01*
X145214051Y-93133334D01*
X145217630Y-93121488D01*
X145220909Y-93110854D01*
X145223900Y-93101041D01*
X145226618Y-93091659D01*
X145229077Y-93082317D01*
X145231291Y-93072626D01*
X145233274Y-93062196D01*
X145235041Y-93050636D01*
X145236605Y-93037556D01*
X145237981Y-93022567D01*
X145239183Y-93005277D01*
X145240224Y-92985298D01*
X145241120Y-92962239D01*
X145241884Y-92935710D01*
X145242530Y-92905320D01*
X145243073Y-92870680D01*
X145243527Y-92831400D01*
X145243905Y-92787089D01*
X145244222Y-92737358D01*
X145244492Y-92681816D01*
X145244729Y-92620073D01*
X145244948Y-92551739D01*
X145245162Y-92476425D01*
X145245386Y-92393739D01*
X145245634Y-92303292D01*
X145245761Y-92258334D01*
X145246031Y-92165638D01*
X145246284Y-92080910D01*
X145246527Y-92003784D01*
X145246763Y-91933894D01*
X145246998Y-91870875D01*
X145247237Y-91814361D01*
X145247483Y-91763986D01*
X145247742Y-91719385D01*
X145248019Y-91680192D01*
X145248318Y-91646041D01*
X145248645Y-91616567D01*
X145249003Y-91591403D01*
X145249398Y-91570186D01*
X145249834Y-91552547D01*
X145250316Y-91538123D01*
X145250850Y-91526547D01*
X145251439Y-91517454D01*
X145252088Y-91510478D01*
X145252803Y-91505253D01*
X145253588Y-91501414D01*
X145254448Y-91498595D01*
X145255387Y-91496430D01*
X145255695Y-91495834D01*
X145270042Y-91474421D01*
X145288010Y-91458651D01*
X145297916Y-91452720D01*
X145314583Y-91443750D01*
X145786536Y-91442639D01*
X146258490Y-91441528D01*
X146257370Y-91536079D01*
G37*
G36*
X143234376Y-90941668D02*
G01*
X143352776Y-90941671D01*
X143463393Y-90941679D01*
X143566503Y-90941694D01*
X143662381Y-90941715D01*
X143751304Y-90941746D01*
X143833545Y-90941787D01*
X143909382Y-90941841D01*
X143979089Y-90941909D01*
X144042941Y-90941992D01*
X144101215Y-90942092D01*
X144154185Y-90942211D01*
X144202127Y-90942350D01*
X144245317Y-90942511D01*
X144284030Y-90942695D01*
X144318541Y-90942904D01*
X144349126Y-90943140D01*
X144376060Y-90943404D01*
X144399619Y-90943698D01*
X144420078Y-90944023D01*
X144437713Y-90944381D01*
X144452799Y-90944773D01*
X144465611Y-90945201D01*
X144476426Y-90945667D01*
X144485517Y-90946173D01*
X144493162Y-90946719D01*
X144499635Y-90947307D01*
X144505211Y-90947939D01*
X144510167Y-90948617D01*
X144514778Y-90949342D01*
X144517294Y-90949766D01*
X144587904Y-90965864D01*
X144654697Y-90989344D01*
X144717791Y-91020267D01*
X144777305Y-91058695D01*
X144833354Y-91104690D01*
X144856401Y-91126790D01*
X144906070Y-91181997D01*
X144948025Y-91240326D01*
X144982347Y-91301948D01*
X145009116Y-91367034D01*
X145028412Y-91435755D01*
X145040315Y-91508283D01*
X145041785Y-91522917D01*
X145042284Y-91532703D01*
X145042748Y-91550241D01*
X145043176Y-91574971D01*
X145043568Y-91606334D01*
X145043925Y-91643773D01*
X145044246Y-91686727D01*
X145044532Y-91734639D01*
X145044782Y-91786949D01*
X145044997Y-91843099D01*
X145045176Y-91902530D01*
X145045321Y-91964684D01*
X145045430Y-92029001D01*
X145045504Y-92094923D01*
X145045544Y-92161891D01*
X145045548Y-92229346D01*
X145045518Y-92296730D01*
X145045453Y-92363484D01*
X145045353Y-92429049D01*
X145045219Y-92492866D01*
X145045050Y-92554376D01*
X145044847Y-92613022D01*
X145044609Y-92668244D01*
X145044338Y-92719483D01*
X145044032Y-92766181D01*
X145043691Y-92807778D01*
X145043317Y-92843717D01*
X145042909Y-92873438D01*
X145042467Y-92896382D01*
X145041991Y-92911992D01*
X145041594Y-92918750D01*
X145032638Y-92983263D01*
X145018386Y-93043194D01*
X144998176Y-93100884D01*
X144976814Y-93147917D01*
X144941206Y-93210177D01*
X144899231Y-93267412D01*
X144851441Y-93319243D01*
X144798388Y-93365290D01*
X144740624Y-93405172D01*
X144678699Y-93438511D01*
X144613166Y-93464927D01*
X144544577Y-93484039D01*
X144473483Y-93495470D01*
X144471433Y-93495678D01*
X144462433Y-93496153D01*
X144445190Y-93496600D01*
X144419698Y-93497020D01*
X144385952Y-93497412D01*
X144343946Y-93497776D01*
X144293675Y-93498112D01*
X144235134Y-93498421D01*
X144168317Y-93498702D01*
X144093219Y-93498956D01*
X144009834Y-93499182D01*
X143918158Y-93499380D01*
X143818184Y-93499551D01*
X143709908Y-93499695D01*
X143593324Y-93499810D01*
X143468426Y-93499899D01*
X143335210Y-93499960D01*
X143193670Y-93499993D01*
X143086980Y-93500000D01*
X141745676Y-93500000D01*
X141746796Y-93405649D01*
X141747916Y-93311298D01*
X141812500Y-93276814D01*
X141877083Y-93242330D01*
X141877191Y-93137500D01*
X142745833Y-93137500D01*
X143332291Y-93137439D01*
X143415216Y-93137421D01*
X143490218Y-93137383D01*
X143557706Y-93137322D01*
X143618091Y-93137232D01*
X143671783Y-93137110D01*
X143719191Y-93136951D01*
X143760725Y-93136750D01*
X143796796Y-93136505D01*
X143827814Y-93136210D01*
X143854188Y-93135861D01*
X143876328Y-93135455D01*
X143894645Y-93134986D01*
X143909548Y-93134450D01*
X143921448Y-93133844D01*
X143930753Y-93133163D01*
X143937875Y-93132402D01*
X143943224Y-93131559D01*
X143945403Y-93131094D01*
X143984792Y-93117638D01*
X144021150Y-93096989D01*
X144053317Y-93070077D01*
X144080132Y-93037831D01*
X144096114Y-93010537D01*
X144104333Y-92992152D01*
X144111409Y-92973356D01*
X144116071Y-92957599D01*
X144116692Y-92954640D01*
X144117257Y-92947334D01*
X144117783Y-92931848D01*
X144118269Y-92908334D01*
X144118715Y-92876944D01*
X144119119Y-92837831D01*
X144119481Y-92791147D01*
X144119801Y-92737044D01*
X144120076Y-92675677D01*
X144120307Y-92607196D01*
X144120493Y-92531754D01*
X144120632Y-92449504D01*
X144120724Y-92360599D01*
X144120768Y-92265191D01*
X144120771Y-92206723D01*
X144120769Y-92113813D01*
X144120770Y-92028858D01*
X144120762Y-91951480D01*
X144120733Y-91881300D01*
X144120672Y-91817942D01*
X144120567Y-91761026D01*
X144120404Y-91710174D01*
X144120174Y-91665009D01*
X144119862Y-91625152D01*
X144119459Y-91590225D01*
X144118950Y-91559850D01*
X144118325Y-91533648D01*
X144117572Y-91511242D01*
X144116678Y-91492254D01*
X144115632Y-91476304D01*
X144114421Y-91463016D01*
X144113033Y-91452011D01*
X144111457Y-91442910D01*
X144109681Y-91435337D01*
X144107692Y-91428911D01*
X144105479Y-91423256D01*
X144103030Y-91417994D01*
X144100332Y-91412745D01*
X144097373Y-91407132D01*
X144095291Y-91403082D01*
X144082593Y-91382877D01*
X144064747Y-91360985D01*
X144043953Y-91339653D01*
X144022411Y-91321126D01*
X144002319Y-91307652D01*
X144001352Y-91307130D01*
X143986151Y-91300250D01*
X143966920Y-91293191D01*
X143947790Y-91287468D01*
X143947560Y-91287409D01*
X143942882Y-91286260D01*
X143937997Y-91285224D01*
X143932475Y-91284293D01*
X143925888Y-91283463D01*
X143917807Y-91282728D01*
X143907802Y-91282081D01*
X143895445Y-91281518D01*
X143880307Y-91281033D01*
X143861958Y-91280619D01*
X143839970Y-91280271D01*
X143813914Y-91279984D01*
X143783360Y-91279751D01*
X143747879Y-91279567D01*
X143707043Y-91279426D01*
X143660423Y-91279323D01*
X143607589Y-91279251D01*
X143548113Y-91279206D01*
X143481565Y-91279180D01*
X143407517Y-91279169D01*
X143330583Y-91279167D01*
X142745833Y-91279167D01*
X142745833Y-92208334D01*
X142745833Y-93137500D01*
X141877191Y-93137500D01*
X141878133Y-92219859D01*
X141878145Y-92208334D01*
X141879183Y-91197388D01*
X141812549Y-91162236D01*
X141745915Y-91127084D01*
X141745874Y-91034375D01*
X141745833Y-90941667D01*
X143107919Y-90941667D01*
X143234376Y-90941668D01*
G37*
G36*
X143353125Y-91442639D02*
G01*
X143827083Y-91443750D01*
X143846125Y-91454945D01*
X143867839Y-91472341D01*
X143883275Y-91495012D01*
X143891601Y-91520491D01*
X143892154Y-91527579D01*
X143892669Y-91542452D01*
X143893147Y-91564562D01*
X143893588Y-91593361D01*
X143893991Y-91628302D01*
X143894356Y-91668834D01*
X143894684Y-91714412D01*
X143894975Y-91764486D01*
X143895228Y-91818509D01*
X143895444Y-91875932D01*
X143895622Y-91936207D01*
X143895763Y-91998786D01*
X143895866Y-92063122D01*
X143895932Y-92128666D01*
X143895960Y-92194869D01*
X143895950Y-92261184D01*
X143895903Y-92327063D01*
X143895819Y-92391958D01*
X143895696Y-92455320D01*
X143895536Y-92516602D01*
X143895339Y-92575255D01*
X143895103Y-92630731D01*
X143894831Y-92682482D01*
X143894520Y-92729961D01*
X143894172Y-92772618D01*
X143893785Y-92809906D01*
X143893362Y-92841277D01*
X143892900Y-92866183D01*
X143892401Y-92884075D01*
X143891864Y-92894405D01*
X143891637Y-92896306D01*
X143882812Y-92923109D01*
X143867304Y-92944936D01*
X143845140Y-92961748D01*
X143842161Y-92963361D01*
X143819881Y-92975000D01*
X143399524Y-92975000D01*
X142979166Y-92975000D01*
X142979166Y-92327810D01*
X142979166Y-91680621D01*
X142929166Y-91654339D01*
X142879166Y-91628057D01*
X142879166Y-91534792D01*
X142879166Y-91441528D01*
X143353125Y-91442639D01*
G37*
D12*
%TO.C,J1*%
X126610000Y-96130000D02*
X127940000Y-96130000D01*
X126610000Y-97460000D02*
X126610000Y-96130000D01*
X129210000Y-96130000D02*
X147050000Y-96130000D01*
X129210000Y-98790000D02*
X129210000Y-96130000D01*
X129210000Y-98790000D02*
X147050000Y-98790000D01*
X147050000Y-98790000D02*
X147050000Y-96130000D01*
%TO.C,J3*%
X149470000Y-96130000D02*
X150800000Y-96130000D01*
X149470000Y-97460000D02*
X149470000Y-96130000D01*
X152070000Y-96130000D02*
X164830000Y-96130000D01*
X152070000Y-98790000D02*
X152070000Y-96130000D01*
X152070000Y-98790000D02*
X164830000Y-98790000D01*
X164830000Y-98790000D02*
X164830000Y-96130000D01*
%TO.C,J2*%
X117466000Y-47870000D02*
X118796000Y-47870000D01*
X117466000Y-49200000D02*
X117466000Y-47870000D01*
X120066000Y-47870000D02*
X142986000Y-47870000D01*
X120066000Y-50530000D02*
X120066000Y-47870000D01*
X120066000Y-50530000D02*
X142986000Y-50530000D01*
X142986000Y-50530000D02*
X142986000Y-47870000D01*
%TO.C,J4*%
X144390000Y-47870000D02*
X145720000Y-47870000D01*
X144390000Y-49200000D02*
X144390000Y-47870000D01*
X146990000Y-47870000D02*
X164830000Y-47870000D01*
X146990000Y-50530000D02*
X146990000Y-47870000D01*
X146990000Y-50530000D02*
X164830000Y-50530000D01*
X164830000Y-50530000D02*
X164830000Y-47870000D01*
%TO.C,SW2*%
X154170000Y-75000000D02*
X154170000Y-76500000D01*
X155420000Y-79000000D02*
X159920000Y-79000000D01*
X159920000Y-72500000D02*
X155420000Y-72500000D01*
X161170000Y-76500000D02*
X161170000Y-75000000D01*
%TO.C,SW4*%
X143170000Y-75000000D02*
X143170000Y-76500000D01*
X144420000Y-79000000D02*
X148920000Y-79000000D01*
X148920000Y-72500000D02*
X144420000Y-72500000D01*
X150170000Y-76500000D02*
X150170000Y-75000000D01*
%TO.C,RV1*%
X130075000Y-85600000D02*
X130075000Y-95370000D01*
X139845000Y-85600000D02*
X130075000Y-85600000D01*
X139845000Y-85600000D02*
X139845000Y-95370000D01*
X139845000Y-95370000D02*
X130075000Y-95370000D01*
%TO.C,SW5*%
X131170000Y-75000000D02*
X131170000Y-76500000D01*
X132420000Y-79000000D02*
X136920000Y-79000000D01*
X136920000Y-72500000D02*
X132420000Y-72500000D01*
X138170000Y-76500000D02*
X138170000Y-75000000D01*
%TO.C,J7*%
X124150000Y-61250000D02*
X124150000Y-62500000D01*
X124440000Y-61540000D02*
X124440000Y-67510000D01*
X124440000Y-67510000D02*
X134560000Y-67510000D01*
X124450000Y-61550000D02*
X124450000Y-62300000D01*
X124450000Y-62300000D02*
X126250000Y-62300000D01*
X124450000Y-63800000D02*
X125200000Y-63800000D01*
X125200000Y-63800000D02*
X125200000Y-66750000D01*
X125200000Y-66750000D02*
X129500000Y-66750000D01*
X125400000Y-61250000D02*
X124150000Y-61250000D01*
X126250000Y-61550000D02*
X124450000Y-61550000D01*
X126250000Y-62300000D02*
X126250000Y-61550000D01*
X127750000Y-61550000D02*
X127750000Y-62300000D01*
X127750000Y-62300000D02*
X131250000Y-62300000D01*
X131250000Y-61550000D02*
X127750000Y-61550000D01*
X131250000Y-62300000D02*
X131250000Y-61550000D01*
X132750000Y-61550000D02*
X132750000Y-62300000D01*
X132750000Y-62300000D02*
X134550000Y-62300000D01*
X133800000Y-63800000D02*
X133800000Y-66750000D01*
X133800000Y-66750000D02*
X129500000Y-66750000D01*
X134550000Y-61550000D02*
X132750000Y-61550000D01*
X134550000Y-62300000D02*
X134550000Y-61550000D01*
X134550000Y-63800000D02*
X133800000Y-63800000D01*
X134560000Y-61540000D02*
X124440000Y-61540000D01*
X134560000Y-67510000D02*
X134560000Y-61540000D01*
%TO.C,D1*%
X146435000Y-52955000D02*
X146435000Y-56045000D01*
X146435000Y-52955170D02*
G75*
G02*
X151985000Y-54499952I2560000J-1544830D01*
G01*
X151985000Y-54500048D02*
G75*
G02*
X146435000Y-56044830I-2990000J48D01*
G01*
X151495000Y-54500000D02*
G75*
G02*
X146495000Y-54500000I-2500000J0D01*
G01*
X146495000Y-54500000D02*
G75*
G02*
X151495000Y-54500000I2500000J0D01*
G01*
%TO.C,R1*%
X141960000Y-59500000D02*
X142730000Y-59500000D01*
X142730000Y-58130000D02*
X142730000Y-60870000D01*
X142730000Y-60870000D02*
X149270000Y-60870000D01*
X149270000Y-58130000D02*
X142730000Y-58130000D01*
X149270000Y-60870000D02*
X149270000Y-58130000D01*
X150040000Y-59500000D02*
X149270000Y-59500000D01*
%TO.C,J6*%
X108590000Y-73670000D02*
X108590000Y-76330000D01*
X116270000Y-73670000D02*
X108590000Y-73670000D01*
X116270000Y-73670000D02*
X116270000Y-76330000D01*
X116270000Y-76330000D02*
X108590000Y-76330000D01*
X118870000Y-75000000D02*
X118870000Y-76330000D01*
X118870000Y-76330000D02*
X117540000Y-76330000D01*
%TO.C,R4*%
X142300000Y-82500000D02*
X143070000Y-82500000D01*
X143070000Y-81130000D02*
X143070000Y-83870000D01*
X143070000Y-83870000D02*
X149610000Y-83870000D01*
X149610000Y-81130000D02*
X143070000Y-81130000D01*
X149610000Y-83870000D02*
X149610000Y-81130000D01*
X150380000Y-82500000D02*
X149610000Y-82500000D01*
%TO.C,R3*%
X154380000Y-69500000D02*
X155150000Y-69500000D01*
X155150000Y-68130000D02*
X155150000Y-70870000D01*
X155150000Y-70870000D02*
X161690000Y-70870000D01*
X161690000Y-68130000D02*
X155150000Y-68130000D01*
X161690000Y-70870000D02*
X161690000Y-68130000D01*
X162460000Y-69500000D02*
X161690000Y-69500000D01*
%TO.C,R2*%
X141880000Y-62500000D02*
X142650000Y-62500000D01*
X142650000Y-61130000D02*
X142650000Y-63870000D01*
X142650000Y-63870000D02*
X149190000Y-63870000D01*
X149190000Y-61130000D02*
X142650000Y-61130000D01*
X149190000Y-63870000D02*
X149190000Y-61130000D01*
X149960000Y-62500000D02*
X149190000Y-62500000D01*
%TO.C,R6*%
X128960000Y-82500000D02*
X129730000Y-82500000D01*
X129730000Y-81130000D02*
X129730000Y-83870000D01*
X129730000Y-83870000D02*
X136270000Y-83870000D01*
X136270000Y-81130000D02*
X129730000Y-81130000D01*
X136270000Y-83870000D02*
X136270000Y-81130000D01*
X137040000Y-82500000D02*
X136270000Y-82500000D01*
%TO.C,SW1*%
X154420000Y-62000000D02*
X154420000Y-63500000D01*
X155670000Y-66000000D02*
X160170000Y-66000000D01*
X160170000Y-59500000D02*
X155670000Y-59500000D01*
X161420000Y-63500000D02*
X161420000Y-62000000D01*
%TO.C,R5*%
X141960000Y-66000000D02*
X142730000Y-66000000D01*
X142730000Y-64630000D02*
X142730000Y-67370000D01*
X142730000Y-67370000D02*
X149270000Y-67370000D01*
X149270000Y-64630000D02*
X142730000Y-64630000D01*
X149270000Y-67370000D02*
X149270000Y-64630000D01*
X150040000Y-66000000D02*
X149270000Y-66000000D01*
%TO.C,SW3*%
X154170000Y-85000000D02*
X154170000Y-86500000D01*
X155420000Y-89000000D02*
X159920000Y-89000000D01*
X159920000Y-82500000D02*
X155420000Y-82500000D01*
X161170000Y-86500000D02*
X161170000Y-85000000D01*
%TO.C,J5*%
X102265000Y-65240238D02*
X103595000Y-65240238D01*
X102265000Y-66570238D02*
X102265000Y-65240238D01*
X104865000Y-65240238D02*
X122705000Y-65240238D01*
X104865000Y-67900238D02*
X104865000Y-65240238D01*
X104865000Y-67900238D02*
X122705000Y-67900238D01*
X122705000Y-67900238D02*
X122705000Y-65240238D01*
%TD*%
M02*
