%TF.GenerationSoftware,KiCad,Pcbnew,8.0.8*%
%TF.CreationDate,2025-02-03T19:45:29-07:00*%
%TF.ProjectId,Uno_Shield_ThermoPro,556e6f5f-5368-4696-956c-645f54686572,rev?*%
%TF.SameCoordinates,Original*%
%TF.FileFunction,Soldermask,Top*%
%TF.FilePolarity,Negative*%
%FSLAX46Y46*%
G04 Gerber Fmt 4.6, Leading zero omitted, Abs format (unit mm)*
G04 Created by KiCad (PCBNEW 8.0.8) date 2025-02-03 19:45:29*
%MOMM*%
%LPD*%
G01*
G04 APERTURE LIST*
G04 Aperture macros list*
%AMRoundRect*
0 Rectangle with rounded corners*
0 $1 Rounding radius*
0 $2 $3 $4 $5 $6 $7 $8 $9 X,Y pos of 4 corners*
0 Add a 4 corners polygon primitive as box body*
4,1,4,$2,$3,$4,$5,$6,$7,$8,$9,$2,$3,0*
0 Add four circle primitives for the rounded corners*
1,1,$1+$1,$2,$3*
1,1,$1+$1,$4,$5*
1,1,$1+$1,$6,$7*
1,1,$1+$1,$8,$9*
0 Add four rect primitives between the rounded corners*
20,1,$1+$1,$2,$3,$4,$5,0*
20,1,$1+$1,$4,$5,$6,$7,0*
20,1,$1+$1,$6,$7,$8,$9,0*
20,1,$1+$1,$8,$9,$2,$3,0*%
G04 Aperture macros list end*
%ADD10R,1.700000X1.700000*%
%ADD11O,1.700000X1.700000*%
%ADD12C,2.000000*%
%ADD13C,1.440000*%
%ADD14RoundRect,0.250000X-0.600000X-0.725000X0.600000X-0.725000X0.600000X0.725000X-0.600000X0.725000X0*%
%ADD15O,1.700000X1.950000*%
%ADD16R,1.800000X1.800000*%
%ADD17C,1.800000*%
%ADD18C,1.600000*%
%ADD19O,1.600000X1.600000*%
G04 APERTURE END LIST*
D10*
%TO.C,J1*%
X127940000Y-97460000D03*
D11*
X130480000Y-97460000D03*
X133020000Y-97460000D03*
X135560000Y-97460000D03*
X138100000Y-97460000D03*
X140640000Y-97460000D03*
X143180000Y-97460000D03*
X145720000Y-97460000D03*
%TD*%
D10*
%TO.C,J3*%
X150800000Y-97460000D03*
D11*
X153340000Y-97460000D03*
X155880000Y-97460000D03*
X158420000Y-97460000D03*
X160960000Y-97460000D03*
X163500000Y-97460000D03*
%TD*%
D10*
%TO.C,J2*%
X118796000Y-49200000D03*
D11*
X121336000Y-49200000D03*
X123876000Y-49200000D03*
X126416000Y-49200000D03*
X128956000Y-49200000D03*
X131496000Y-49200000D03*
X134036000Y-49200000D03*
X136576000Y-49200000D03*
X139116000Y-49200000D03*
X141656000Y-49200000D03*
%TD*%
D10*
%TO.C,J4*%
X145720000Y-49200000D03*
D11*
X148260000Y-49200000D03*
X150800000Y-49200000D03*
X153340000Y-49200000D03*
X155880000Y-49200000D03*
X158420000Y-49200000D03*
X160960000Y-49200000D03*
X163500000Y-49200000D03*
%TD*%
D12*
%TO.C,SW2*%
X154420000Y-73500000D03*
X160920000Y-73500000D03*
X154420000Y-78000000D03*
X160920000Y-78000000D03*
%TD*%
%TO.C,SW4*%
X143420000Y-73500000D03*
X149920000Y-73500000D03*
X143420000Y-78000000D03*
X149920000Y-78000000D03*
%TD*%
D13*
%TO.C,RV1*%
X132420000Y-90500000D03*
X134960000Y-93040000D03*
X137500000Y-90500000D03*
%TD*%
D12*
%TO.C,SW5*%
X131420000Y-73500000D03*
X137920000Y-73500000D03*
X131420000Y-78000000D03*
X137920000Y-78000000D03*
%TD*%
D14*
%TO.C,J7*%
X127000000Y-64000000D03*
D15*
X129500000Y-64000000D03*
X132000000Y-64000000D03*
%TD*%
D16*
%TO.C,D1*%
X147725000Y-54500000D03*
D17*
X150265000Y-54500000D03*
%TD*%
D18*
%TO.C,R1*%
X140920000Y-59500000D03*
D19*
X151080000Y-59500000D03*
%TD*%
D10*
%TO.C,J6*%
X117540000Y-75000000D03*
D11*
X115000000Y-75000000D03*
X112460000Y-75000000D03*
X109920000Y-75000000D03*
%TD*%
D18*
%TO.C,R4*%
X151420000Y-82500000D03*
D19*
X141260000Y-82500000D03*
%TD*%
D18*
%TO.C,R3*%
X163500000Y-69500000D03*
D19*
X153340000Y-69500000D03*
%TD*%
D18*
%TO.C,R2*%
X151000000Y-62500000D03*
D19*
X140840000Y-62500000D03*
%TD*%
D18*
%TO.C,R6*%
X127920000Y-82500000D03*
D19*
X138080000Y-82500000D03*
%TD*%
D12*
%TO.C,SW1*%
X154670000Y-60500000D03*
X161170000Y-60500000D03*
X154670000Y-65000000D03*
X161170000Y-65000000D03*
%TD*%
D18*
%TO.C,R5*%
X151080000Y-66000000D03*
D19*
X140920000Y-66000000D03*
%TD*%
D12*
%TO.C,SW3*%
X154420000Y-83500000D03*
X160920000Y-83500000D03*
X154420000Y-88000000D03*
X160920000Y-88000000D03*
%TD*%
D10*
%TO.C,J5*%
X103595000Y-66570238D03*
D11*
X106135000Y-66570238D03*
X108675000Y-66570238D03*
X111215000Y-66570238D03*
X113755000Y-66570238D03*
X116295000Y-66570238D03*
X118835000Y-66570238D03*
X121375000Y-66570238D03*
%TD*%
M02*
