%TF.GenerationSoftware,KiCad,Pcbnew,8.0.8*%
%TF.CreationDate,2025-02-03T19:45:23-07:00*%
%TF.ProjectId,Uno_Shield_ThermoPro,556e6f5f-5368-4696-956c-645f54686572,rev?*%
%TF.SameCoordinates,Original*%
%TF.FileFunction,Plated,1,2,PTH,Drill*%
%TF.FilePolarity,Positive*%
%FSLAX46Y46*%
G04 Gerber Fmt 4.6, Leading zero omitted, Abs format (unit mm)*
G04 Created by KiCad (PCBNEW 8.0.8) date 2025-02-03 19:45:23*
%MOMM*%
%LPD*%
G01*
G04 APERTURE LIST*
%TA.AperFunction,ComponentDrill*%
%ADD10C,0.800000*%
%TD*%
%TA.AperFunction,ComponentDrill*%
%ADD11C,0.900000*%
%TD*%
%TA.AperFunction,ComponentDrill*%
%ADD12C,0.950000*%
%TD*%
%TA.AperFunction,ComponentDrill*%
%ADD13C,1.000000*%
%TD*%
%TA.AperFunction,ComponentDrill*%
%ADD14C,1.100000*%
%TD*%
G04 APERTURE END LIST*
D10*
%TO.C,R6*%
X127920000Y-82500000D03*
%TO.C,RV1*%
X132420000Y-90500000D03*
X134960000Y-93040000D03*
X137500000Y-90500000D03*
%TO.C,R6*%
X138080000Y-82500000D03*
%TO.C,R2*%
X140840000Y-62500000D03*
%TO.C,R1*%
X140920000Y-59500000D03*
%TO.C,R5*%
X140920000Y-66000000D03*
%TO.C,R4*%
X141260000Y-82500000D03*
%TO.C,R2*%
X151000000Y-62500000D03*
%TO.C,R1*%
X151080000Y-59500000D03*
%TO.C,R5*%
X151080000Y-66000000D03*
%TO.C,R4*%
X151420000Y-82500000D03*
%TO.C,R3*%
X153340000Y-69500000D03*
X163500000Y-69500000D03*
D11*
%TO.C,D1*%
X147725000Y-54500000D03*
X150265000Y-54500000D03*
D12*
%TO.C,J7*%
X127000000Y-64000000D03*
X129500000Y-64000000D03*
X132000000Y-64000000D03*
D13*
%TO.C,J5*%
X103595000Y-66570238D03*
X106135000Y-66570238D03*
X108675000Y-66570238D03*
%TO.C,J6*%
X109920000Y-75000000D03*
%TO.C,J5*%
X111215000Y-66570238D03*
%TO.C,J6*%
X112460000Y-75000000D03*
%TO.C,J5*%
X113755000Y-66570238D03*
%TO.C,J6*%
X115000000Y-75000000D03*
%TO.C,J5*%
X116295000Y-66570238D03*
%TO.C,J6*%
X117540000Y-75000000D03*
%TO.C,J2*%
X118796000Y-49200000D03*
%TO.C,J5*%
X118835000Y-66570238D03*
%TO.C,J2*%
X121336000Y-49200000D03*
%TO.C,J5*%
X121375000Y-66570238D03*
%TO.C,J2*%
X123876000Y-49200000D03*
X126416000Y-49200000D03*
%TO.C,J1*%
X127940000Y-97460000D03*
%TO.C,J2*%
X128956000Y-49200000D03*
%TO.C,J1*%
X130480000Y-97460000D03*
%TO.C,J2*%
X131496000Y-49200000D03*
%TO.C,J1*%
X133020000Y-97460000D03*
%TO.C,J2*%
X134036000Y-49200000D03*
%TO.C,J1*%
X135560000Y-97460000D03*
%TO.C,J2*%
X136576000Y-49200000D03*
%TO.C,J1*%
X138100000Y-97460000D03*
%TO.C,J2*%
X139116000Y-49200000D03*
%TO.C,J1*%
X140640000Y-97460000D03*
%TO.C,J2*%
X141656000Y-49200000D03*
%TO.C,J1*%
X143180000Y-97460000D03*
%TO.C,J4*%
X145720000Y-49200000D03*
%TO.C,J1*%
X145720000Y-97460000D03*
%TO.C,J4*%
X148260000Y-49200000D03*
X150800000Y-49200000D03*
%TO.C,J3*%
X150800000Y-97460000D03*
%TO.C,J4*%
X153340000Y-49200000D03*
%TO.C,J3*%
X153340000Y-97460000D03*
%TO.C,J4*%
X155880000Y-49200000D03*
%TO.C,J3*%
X155880000Y-97460000D03*
%TO.C,J4*%
X158420000Y-49200000D03*
%TO.C,J3*%
X158420000Y-97460000D03*
%TO.C,J4*%
X160960000Y-49200000D03*
%TO.C,J3*%
X160960000Y-97460000D03*
%TO.C,J4*%
X163500000Y-49200000D03*
%TO.C,J3*%
X163500000Y-97460000D03*
D14*
%TO.C,SW5*%
X131420000Y-73500000D03*
X131420000Y-78000000D03*
X137920000Y-73500000D03*
X137920000Y-78000000D03*
%TO.C,SW4*%
X143420000Y-73500000D03*
X143420000Y-78000000D03*
X149920000Y-73500000D03*
X149920000Y-78000000D03*
%TO.C,SW2*%
X154420000Y-73500000D03*
X154420000Y-78000000D03*
%TO.C,SW3*%
X154420000Y-83500000D03*
X154420000Y-88000000D03*
%TO.C,SW1*%
X154670000Y-60500000D03*
X154670000Y-65000000D03*
%TO.C,SW2*%
X160920000Y-73500000D03*
X160920000Y-78000000D03*
%TO.C,SW3*%
X160920000Y-83500000D03*
X160920000Y-88000000D03*
%TO.C,SW1*%
X161170000Y-60500000D03*
X161170000Y-65000000D03*
M02*
